# This file uses centimeters as units for non-parametric coordinates.

mtllib Tip.mtl
g default
v 0.013476 0.006005 0.006018
v 0.009868 0.010971 0.006018
v 0.004552 0.014040 0.006018
v -0.001553 0.014682 0.006018
v -0.007392 0.012785 0.006018
v -0.011953 0.008677 0.006018
v -0.014450 0.003069 0.006018
v -0.014450 -0.003069 0.006018
v -0.011953 -0.008677 0.006018
v -0.007392 -0.012785 0.006018
v -0.001553 -0.014682 0.006018
v 0.004552 -0.014040 0.006018
v 0.009868 -0.010971 0.006018
v 0.013476 -0.006005 0.006018
v 0.014752 0.000000 0.006018
v 0.012798 0.005703 0.010348
v 0.009370 0.010421 0.010348
v 0.004321 0.013336 0.010348
v -0.001478 0.013946 0.010348
v -0.007024 0.012144 0.010348
v -0.011357 0.008242 0.010348
v -0.013728 0.002915 0.010348
v -0.013728 -0.002915 0.010348
v -0.011357 -0.008242 0.010348
v -0.007024 -0.012144 0.010348
v -0.001478 -0.013946 0.010348
v 0.004321 -0.013336 0.010348
v 0.009370 -0.010421 0.010348
v 0.012798 -0.005703 0.010348
v 0.014010 0.000000 0.010348
v 0.011335 0.005053 0.014420
v 0.008298 0.009232 0.014420
v 0.003825 0.011815 0.014420
v -0.001312 0.012355 0.014420
v -0.006225 0.010758 0.014420
v -0.010064 0.007302 0.014420
v -0.012165 0.002583 0.014420
v -0.012165 -0.002583 0.014420
v -0.010064 -0.007302 0.014420
v -0.006225 -0.010758 0.014420
v -0.001312 -0.012355 0.014420
v 0.003825 -0.011815 0.014420
v 0.008298 -0.009232 0.014420
v 0.011335 -0.005053 0.014420
v 0.012409 0.000000 0.014420
v 0.009129 0.004071 0.017858
v 0.006683 0.007438 0.017858
v 0.003078 0.009519 0.017858
v -0.001061 0.009954 0.017858
v -0.005019 0.008668 0.017858
v -0.008112 0.005883 0.017858
v -0.009804 0.002081 0.017858
v -0.009804 -0.002081 0.017858
v -0.008112 -0.005883 0.017858
v -0.005019 -0.008668 0.017858
v -0.001061 -0.009954 0.017858
v 0.003078 -0.009519 0.017858
v 0.006683 -0.007438 0.017858
v 0.009129 -0.004071 0.017858
v 0.009994 0.000000 0.017858
v 0.006347 0.002832 0.020356
v 0.004645 0.005174 0.020356
v 0.002138 0.006622 0.020356
v -0.000742 0.006925 0.020356
v -0.003495 0.006030 0.020356
v -0.005647 0.004093 0.020356
v -0.006825 0.001448 0.020356
v -0.006825 -0.001448 0.020356
v -0.005647 -0.004093 0.020356
v -0.003495 -0.006030 0.020356
v -0.000742 -0.006925 0.020356
v 0.002138 -0.006622 0.020356
v 0.004645 -0.005174 0.020356
v 0.006347 -0.002832 0.020356
v 0.006949 0.000000 0.020356
v 0.003221 0.001440 0.021744
v 0.002356 0.002631 0.021744
v 0.001081 0.003367 0.021744
v -0.000383 0.003520 0.021744
v -0.001783 0.003066 0.021744
v -0.002877 0.002081 0.021744
v -0.003475 0.000736 0.021744
v -0.003475 -0.000736 0.021744
v -0.002877 -0.002081 0.021744
v -0.001783 -0.003066 0.021744
v -0.000383 -0.003520 0.021744
v 0.001081 -0.003367 0.021744
v 0.002356 -0.002631 0.021744
v 0.003221 -0.001440 0.021744
v 0.003527 0.000000 0.021744
v -0.000011 0.000000 0.021980
vt 0.000000 0.600000
vt 0.066667 0.600000
vt 0.133333 0.600000
vt 0.200000 0.600000
vt 0.266667 0.600000
vt 0.333333 0.600000
vt 0.400000 0.600000
vt 0.466667 0.600000
vt 0.533333 0.600000
vt 0.600000 0.600000
vt 0.666667 0.600000
vt 0.733333 0.600000
vt 0.800000 0.600000
vt 0.866667 0.600000
vt 0.933333 0.600000
vt 1.000000 0.600000
vt 0.000000 0.666667
vt 0.066667 0.666667
vt 0.133333 0.666667
vt 0.200000 0.666667
vt 0.266667 0.666667
vt 0.333333 0.666667
vt 0.400000 0.666667
vt 0.466667 0.666667
vt 0.533333 0.666667
vt 0.600000 0.666667
vt 0.666667 0.666667
vt 0.733333 0.666667
vt 0.800000 0.666667
vt 0.866667 0.666667
vt 0.933333 0.666667
vt 1.000000 0.666667
vt 0.000000 0.733333
vt 0.066667 0.733333
vt 0.133333 0.733333
vt 0.200000 0.733333
vt 0.266667 0.733333
vt 0.333333 0.733333
vt 0.400000 0.733333
vt 0.466667 0.733333
vt 0.533333 0.733333
vt 0.600000 0.733333
vt 0.666667 0.733333
vt 0.733333 0.733333
vt 0.800000 0.733333
vt 0.866667 0.733333
vt 0.933333 0.733333
vt 1.000000 0.733333
vt 0.000000 0.800000
vt 0.066667 0.800000
vt 0.133333 0.800000
vt 0.200000 0.800000
vt 0.266667 0.800000
vt 0.333333 0.800000
vt 0.400000 0.800000
vt 0.466667 0.800000
vt 0.533333 0.800000
vt 0.600000 0.800000
vt 0.666667 0.800000
vt 0.733333 0.800000
vt 0.800000 0.800000
vt 0.866667 0.800000
vt 0.933333 0.800000
vt 1.000000 0.800000
vt 0.000000 0.866667
vt 0.066667 0.866667
vt 0.133333 0.866667
vt 0.200000 0.866667
vt 0.266667 0.866667
vt 0.333333 0.866667
vt 0.400000 0.866667
vt 0.466667 0.866667
vt 0.533333 0.866667
vt 0.600000 0.866667
vt 0.666667 0.866667
vt 0.733333 0.866667
vt 0.800000 0.866667
vt 0.866667 0.866667
vt 0.933333 0.866667
vt 1.000000 0.866667
vt 0.000000 0.933333
vt 0.066667 0.933333
vt 0.133333 0.933333
vt 0.200000 0.933333
vt 0.266667 0.933333
vt 0.333333 0.933333
vt 0.400000 0.933333
vt 0.466667 0.933333
vt 0.533333 0.933333
vt 0.600000 0.933333
vt 0.666667 0.933333
vt 0.733333 0.933333
vt 0.800000 0.933333
vt 0.866667 0.933333
vt 0.933333 0.933333
vt 1.000000 0.933333
vt 0.033333 1.000000
vt 0.100000 1.000000
vt 0.166667 1.000000
vt 0.233333 1.000000
vt 0.300000 1.000000
vt 0.366667 1.000000
vt 0.433333 1.000000
vt 0.500000 1.000000
vt 0.566667 1.000000
vt 0.633333 1.000000
vt 0.700000 1.000000
vt 0.766667 1.000000
vt 0.833333 1.000000
vt 0.900000 1.000000
vt 0.966667 1.000000
vn 0.900428 0.400853 0.168959
vn 0.659579 0.732428 0.168834
vn 0.646178 0.717679 0.259597
vn 0.882198 0.392791 0.259696
vn 0.304679 0.937405 0.168650
vn 0.298414 0.918496 0.259451
vn -0.102938 0.980322 0.168439
vn -0.100977 0.960508 0.259283
vn -0.492800 0.853724 0.168237
vn -0.482940 0.836436 0.259123
vn -0.797473 0.579470 0.168080
vn -0.781420 0.567718 0.258998
vn -0.964242 0.204977 0.167993
vn -0.944790 0.200817 0.258929
vn -0.964242 -0.204977 0.167993
vn -0.944790 -0.200816 0.258929
vn -0.797474 -0.579470 0.168080
vn -0.781420 -0.567717 0.258998
vn -0.492800 -0.853724 0.168237
vn -0.482940 -0.836435 0.259123
vn -0.102938 -0.980322 0.168439
vn -0.100977 -0.960508 0.259283
vn 0.304679 -0.937405 0.168650
vn 0.298413 -0.918496 0.259451
vn 0.659579 -0.732428 0.168834
vn 0.646178 -0.717679 0.259597
vn 0.900428 -0.400853 0.168959
vn 0.882198 -0.392790 0.259696
vn 0.985616 0.000000 0.169003
vn 0.965681 0.000000 0.259731
vn 0.595995 0.661946 0.454552
vn 0.813688 0.362288 0.454599
vn 0.275237 0.847166 0.454484
vn -0.093137 0.885913 0.454405
vn -0.445435 0.771474 0.454329
vn -0.720732 0.523625 0.454270
vn -0.871413 0.185220 0.454238
vn -0.871413 -0.185219 0.454238
vn -0.720732 -0.523625 0.454270
vn -0.445435 -0.771474 0.454329
vn -0.093138 -0.885913 0.454405
vn 0.275236 -0.847166 0.454483
vn 0.595995 -0.661946 0.454552
vn 0.813688 -0.362288 0.454599
vn 0.890688 0.000000 0.454615
vn 0.506949 0.563038 0.652680
vn 0.692128 0.308161 0.652683
vn 0.234111 0.720560 0.652675
vn -0.079208 0.753491 0.652670
vn -0.378833 0.656136 0.652665
vn -0.612956 0.445329 0.652661
vn -0.741096 0.157522 0.652659
vn -0.741096 -0.157522 0.652659
vn -0.612956 -0.445329 0.652661
vn -0.378833 -0.656136 0.652665
vn -0.079208 -0.753491 0.652670
vn 0.234111 -0.720560 0.652675
vn 0.506949 -0.563038 0.652680
vn 0.692128 -0.308161 0.652683
vn 0.757630 0.000000 0.652684
vn 0.374025 0.415394 0.829188
vn 0.510663 0.227361 0.829174
vn 0.172723 0.531583 0.829208
vn -0.058420 0.555843 0.829232
vn -0.279435 0.483998 0.829254
vn -0.452116 0.328483 0.829271
vn -0.546621 0.116188 0.829281
vn -0.546621 -0.116188 0.829281
vn -0.452116 -0.328482 0.829271
vn -0.279435 -0.483998 0.829254
vn -0.058420 -0.555843 0.829232
vn 0.172723 -0.531583 0.829208
vn 0.374024 -0.415394 0.829188
vn 0.510663 -0.227361 0.829175
vn 0.558997 0.000000 0.829170
vn 0.211920 0.235349 0.948525
vn 0.289345 0.128820 0.948517
vn 0.097865 0.301164 0.948537
vn -0.033086 0.314892 0.948551
vn -0.158285 0.274177 0.948564
vn -0.256096 0.186072 0.948574
vn -0.309622 0.065814 0.948579
vn -0.309622 -0.065814 0.948579
vn -0.256096 -0.186072 0.948574
vn -0.158285 -0.274177 0.948564
vn -0.033086 -0.314892 0.948551
vn 0.097865 -0.301164 0.948537
vn 0.211920 -0.235349 0.948525
vn 0.289345 -0.128819 0.948517
vn 0.316734 0.000000 0.948515
vn 0.000014 -0.000000 1.000000
s 1
g pSphere1
usemtl initialShadingGroup
f 1/1/1 2/2/2 17/18/3 16/17/4
f 2/2/2 3/3/5 18/19/6 17/18/3
f 3/3/5 4/4/7 19/20/8 18/19/6
f 4/4/7 5/5/9 20/21/10 19/20/8
f 5/5/9 6/6/11 21/22/12 20/21/10
f 6/6/11 7/7/13 22/23/14 21/22/12
f 7/7/13 8/8/15 23/24/16 22/23/14
f 8/8/15 9/9/17 24/25/18 23/24/16
f 9/9/17 10/10/19 25/26/20 24/25/18
f 10/10/19 11/11/21 26/27/22 25/26/20
f 11/11/21 12/12/23 27/28/24 26/27/22
f 12/12/23 13/13/25 28/29/26 27/28/24
f 13/13/25 14/14/27 29/30/28 28/29/26
f 14/14/27 15/15/29 30/31/30 29/30/28
f 15/15/29 1/16/1 16/32/4 30/31/30
f 16/17/4 17/18/3 32/34/31 31/33/32
f 17/18/3 18/19/6 33/35/33 32/34/31
f 18/19/6 19/20/8 34/36/34 33/35/33
f 19/20/8 20/21/10 35/37/35 34/36/34
f 20/21/10 21/22/12 36/38/36 35/37/35
f 21/22/12 22/23/14 37/39/37 36/38/36
f 22/23/14 23/24/16 38/40/38 37/39/37
f 23/24/16 24/25/18 39/41/39 38/40/38
f 24/25/18 25/26/20 40/42/40 39/41/39
f 25/26/20 26/27/22 41/43/41 40/42/40
f 26/27/22 27/28/24 42/44/42 41/43/41
f 27/28/24 28/29/26 43/45/43 42/44/42
f 28/29/26 29/30/28 44/46/44 43/45/43
f 29/30/28 30/31/30 45/47/45 44/46/44
f 30/31/30 16/32/4 31/48/32 45/47/45
f 31/33/32 32/34/31 47/50/46 46/49/47
f 32/34/31 33/35/33 48/51/48 47/50/46
f 33/35/33 34/36/34 49/52/49 48/51/48
f 34/36/34 35/37/35 50/53/50 49/52/49
f 35/37/35 36/38/36 51/54/51 50/53/50
f 36/38/36 37/39/37 52/55/52 51/54/51
f 37/39/37 38/40/38 53/56/53 52/55/52
f 38/40/38 39/41/39 54/57/54 53/56/53
f 39/41/39 40/42/40 55/58/55 54/57/54
f 40/42/40 41/43/41 56/59/56 55/58/55
f 41/43/41 42/44/42 57/60/57 56/59/56
f 42/44/42 43/45/43 58/61/58 57/60/57
f 43/45/43 44/46/44 59/62/59 58/61/58
f 44/46/44 45/47/45 60/63/60 59/62/59
f 45/47/45 31/48/32 46/64/47 60/63/60
f 46/49/47 47/50/46 62/66/61 61/65/62
f 47/50/46 48/51/48 63/67/63 62/66/61
f 48/51/48 49/52/49 64/68/64 63/67/63
f 49/52/49 50/53/50 65/69/65 64/68/64
f 50/53/50 51/54/51 66/70/66 65/69/65
f 51/54/51 52/55/52 67/71/67 66/70/66
f 52/55/52 53/56/53 68/72/68 67/71/67
f 53/56/53 54/57/54 69/73/69 68/72/68
f 54/57/54 55/58/55 70/74/70 69/73/69
f 55/58/55 56/59/56 71/75/71 70/74/70
f 56/59/56 57/60/57 72/76/72 71/75/71
f 57/60/57 58/61/58 73/77/73 72/76/72
f 58/61/58 59/62/59 74/78/74 73/77/73
f 59/62/59 60/63/60 75/79/75 74/78/74
f 60/63/60 46/64/47 61/80/62 75/79/75
f 61/65/62 62/66/61 77/82/76 76/81/77
f 62/66/61 63/67/63 78/83/78 77/82/76
f 63/67/63 64/68/64 79/84/79 78/83/78
f 64/68/64 65/69/65 80/85/80 79/84/79
f 65/69/65 66/70/66 81/86/81 80/85/80
f 66/70/66 67/71/67 82/87/82 81/86/81
f 67/71/67 68/72/68 83/88/83 82/87/82
f 68/72/68 69/73/69 84/89/84 83/88/83
f 69/73/69 70/74/70 85/90/85 84/89/84
f 70/74/70 71/75/71 86/91/86 85/90/85
f 71/75/71 72/76/72 87/92/87 86/91/86
f 72/76/72 73/77/73 88/93/88 87/92/87
f 73/77/73 74/78/74 89/94/89 88/93/88
f 74/78/74 75/79/75 90/95/90 89/94/89
f 75/79/75 61/80/62 76/96/77 90/95/90
f 76/81/77 77/82/76 91/97/91
f 77/82/76 78/83/78 91/98/91
f 78/83/78 79/84/79 91/99/91
f 79/84/79 80/85/80 91/100/91
f 80/85/80 81/86/81 91/101/91
f 81/86/81 82/87/82 91/102/91
f 82/87/82 83/88/83 91/103/91
f 83/88/83 84/89/84 91/104/91
f 84/89/84 85/90/85 91/105/91
f 85/90/85 86/91/86 91/106/91
f 86/91/86 87/92/87 91/107/91
f 87/92/87 88/93/88 91/108/91
f 88/93/88 89/94/89 91/109/91
f 89/94/89 90/95/90 91/110/91
f 90/95/90 76/96/77 91/111/91
