# This file uses centimeters as units for non-parametric coordinates.

mtllib Burbuja_Tanque.mtl
g default
v -2.082197 2.515517 3.968543
v 0.000009 3.201421 4.764740
v -2.201336 3.201421 4.174892
v 0.000009 2.515517 4.526464
v 3.812849 3.201421 -1.839292
v 3.804730 3.901397 -1.834605
v 4.402699 3.201421 0.362052
v 3.668717 5.440502 -1.756077
v 2.118138 5.440502 -3.306656
v 2.045965 6.383797 -3.181647
v 3.543708 6.383797 -1.683904
v -3.668699 5.440502 2.480182
v -2.118120 5.440502 4.030760
v -2.045947 6.383797 3.905751
v -3.543690 6.383797 2.408008
v 4.164420 2.515517 0.362052
v 1.497753 7.862902 -2.232116
v 0.000009 7.862902 -2.633435
v 4.393322 3.901397 0.362052
v 0.000009 3.901397 4.755365
v -2.196648 3.901397 4.166773
v 3.606500 2.515517 2.444258
v 2.201354 3.201421 4.174892
v -1.834345 7.226843 3.539246
v -3.177185 7.226843 2.196406
v 1.834363 7.226843 -2.815142
v 3.177203 7.226843 -1.472302
v 2.082214 2.515517 3.968543
v 3.812849 3.201421 2.563396
v 3.606500 2.515517 -1.720153
v 0.000009 4.665630 4.772630
v -2.205280 4.665630 4.181725
v 3.819682 4.665630 -1.843237
v 4.410587 4.665630 0.362052
v 3.804730 3.901397 2.558709
v -1.497735 7.862902 2.956220
v -2.594159 7.862902 1.859796
v 2.594177 7.862902 -1.135691
v 0.000009 7.226843 4.030760
v 0.000009 5.440502 4.598311
v 4.236268 5.440502 0.362052
v 0.011427 7.862902 3.354480
v 2.196666 3.901397 4.166773
v 4.091920 6.383797 0.362052
v 0.000009 6.383797 4.453964
v 1.486334 7.862902 2.959280
v 1.834363 7.226843 3.539246
v 2.594177 7.862902 1.859796
v 3.177203 7.226843 2.196406
v 3.668717 7.226843 0.362052
v 2.205298 4.665630 4.181725
v 3.819682 4.665630 2.567341
v 2.995496 7.862902 0.362052
v 2.118138 5.440502 4.030760
v 3.668717 5.440502 2.480182
v -2.995478 7.862902 0.362052
v 3.543708 6.383797 2.408008
v 2.045965 6.383797 3.905751
v 0.000009 7.226843 -3.306656
v -3.668699 7.226843 0.362052
v -3.819664 4.665630 2.567341
v 2.205298 4.665630 -3.457621
v -1.497735 7.862902 -2.232116
v 2.196666 3.901397 -3.442669
v -3.804712 3.901397 2.558709
v -2.594159 7.862902 -1.135691
v -4.091903 6.383797 0.362052
v 0.000009 6.383797 -3.729860
v -1.834345 7.226843 -2.815142
v -3.177185 7.226843 -1.472302
v 2.201354 3.201421 -3.450788
v -3.812831 3.201421 2.563396
v -4.236250 5.440502 0.362052
v 0.000009 5.440502 -3.874207
v 2.082214 2.515517 -3.244439
v -3.606482 2.515517 2.444258
v -4.402681 3.201421 0.362052
v 0.000009 3.201421 -4.040636
v -4.164402 2.515517 0.362052
v -4.393304 3.901397 0.362052
v -2.045947 6.383797 -3.181647
v -3.543690 6.383797 -1.683904
v 0.000009 4.665630 -4.048526
v -4.410569 4.665630 0.362052
v 0.000009 2.515517 -3.802359
v -3.812831 3.201421 -1.839292
v -3.804712 3.901397 -1.834605
v -2.201336 3.201421 -3.450788
v 0.000009 3.901397 -4.031261
v -3.606482 2.515517 -1.720153
v -3.668699 5.440502 -1.756077
v -2.118120 5.440502 -3.306656
v -2.082197 2.515517 -3.244439
v -2.205280 4.665630 -3.457621
v -3.819664 4.665630 -1.843237
v -2.196648 3.901397 -3.442669
vt 0.583333 0.166667
vt 0.666667 0.250000
vt 0.583333 0.250000
vt 0.666667 0.166667
vt 1.000000 0.250000
vt 1.000000 0.333333
vt 0.916667 0.250000
vt 0.000000 0.500000
vt 0.083333 0.500000
vt 0.083333 0.583333
vt 0.000000 0.583333
vt 0.500000 0.500000
vt 0.583333 0.500000
vt 0.583333 0.583333
vt 0.500000 0.583333
vt 0.916667 0.166667
vt 0.083333 0.750000
vt 0.166667 0.750000
vt 0.916667 0.333333
vt 0.666667 0.333333
vt 0.583333 0.333333
vt 0.833333 0.166667
vt 0.750000 0.250000
vt 0.583333 0.666667
vt 0.500000 0.666667
vt 0.083333 0.666667
vt 0.000000 0.666667
vt 0.750000 0.166667
vt 0.833333 0.250000
vt 1.000000 0.166667
vt 0.666667 0.416667
vt 0.583333 0.416667
vt 1.000000 0.416667
vt 0.916667 0.416667
vt 0.833333 0.333333
vt 0.583333 0.750000
vt 0.500000 0.750000
vt 0.000000 0.750000
vt 0.666667 0.666667
vt 0.666667 0.500000
vt 1.000000 0.500000
vt 0.916667 0.500000
vt 0.666667 0.750000
vt 0.750000 0.333333
vt 1.000000 0.583333
vt 0.916667 0.583333
vt 0.666667 0.583333
vt 0.750000 0.750000
vt 0.750000 0.666667
vt 0.833333 0.750000
vt 0.833333 0.666667
vt 1.000000 0.666667
vt 0.916667 0.666667
vt 0.750000 0.416667
vt 0.833333 0.416667
vt 1.000000 0.750000
vt 0.914887 0.458333
vt 0.750000 0.500000
vt 0.833333 0.500000
vt 0.416667 0.738809
vt 0.833333 0.583333
vt 0.750000 0.583333
vt 0.166667 0.666667
vt 0.416667 0.666667
vt 0.500000 0.416667
vt 0.000000 0.416667
vt 0.083333 0.416667
vt 0.250000 0.750000
vt 0.000000 0.333333
vt 0.083333 0.333333
vt 0.500000 0.333333
vt 0.333333 0.750000
vt 0.416667 0.583333
vt 0.166667 0.583333
vt 0.250000 0.666667
vt 0.333333 0.666667
vt 0.000000 0.250000
vt 0.083333 0.250000
vt 0.500000 0.250000
vt 0.416667 0.500000
vt 0.166667 0.500000
vt 0.000000 0.166667
vt 0.083333 0.166667
vt 0.500000 0.166667
vt 0.416667 0.250000
vt 0.166667 0.250000
vt 0.416667 0.166667
vt 0.416667 0.333333
vt 0.250000 0.583333
vt 0.333333 0.583333
vt 0.166667 0.416667
vt 0.416667 0.416667
vt 0.166667 0.166667
vt 0.333333 0.250000
vt 0.333333 0.333333
vt 0.250000 0.250000
vt 0.166667 0.333333
vt 0.333333 0.166667
vt 0.333333 0.500000
vt 0.250000 0.500000
vt 0.250000 0.166667
vt 0.250000 0.416667
vt 0.333333 0.416667
vt 0.250000 0.333333
vn 0.000000 -0.156039 0.987751
vn -0.493876 -0.156039 0.855417
vn -0.358440 -0.697196 0.620837
vn 0.000000 -0.953044 0.302832
vn 0.987751 -0.156039 0.000000
vn 0.855417 -0.156039 -0.493876
vn 0.866013 -0.005409 -0.499993
vn 0.999985 -0.005409 0.000000
vn 0.851234 0.184030 -0.491460
vn 0.491460 0.184030 -0.851234
vn 0.478536 0.289850 -0.828849
vn 0.828849 0.289850 -0.478536
vn -0.851234 0.184030 0.491460
vn -0.491460 0.184030 0.851234
vn -0.478536 0.289850 0.828849
vn -0.828849 0.289850 0.478536
vn 0.311037 -0.950398 0.000000
vn 0.206944 -0.971030 -0.119479
vn -0.000000 -0.005410 0.999985
vn -0.499993 -0.005410 0.866013
vn 0.395655 -0.889537 0.228431
vn 0.855417 -0.156039 0.493876
vn 0.493876 -0.156039 0.855417
vn 0.358440 -0.697196 0.620837
vn -0.410088 0.571225 0.711006
vn -0.711186 0.570630 0.410604
vn 0.410604 0.570630 -0.711186
vn 0.711186 0.570630 -0.410604
vn 0.866013 -0.005409 0.499993
vn -0.000000 0.098399 0.995147
vn -0.497574 0.098399 0.861823
vn 0.861823 0.098399 -0.497574
vn 0.995147 0.098399 0.000000
vn -0.115320 0.972901 0.200414
vn -0.208161 0.970683 0.120182
vn 0.140760 0.959556 -0.243803
vn 0.249887 0.957467 -0.144272
vn -0.000795 0.570911 0.821011
vn 0.000400 0.967602 0.252482
vn 0.000000 0.184030 0.982921
vn 0.982921 0.184030 -0.000000
vn 0.499993 -0.005410 0.866013
vn 0.957072 0.289850 0.000000
vn 0.000000 0.289850 0.957072
vn 0.365281 0.906528 0.211606
vn 0.163929 0.944414 0.284973
vn 0.411195 0.570911 0.710619
vn 0.710650 0.571225 0.410706
vn 0.821207 0.570630 -0.000000
vn 0.497574 0.098399 0.861823
vn 0.861823 0.098399 0.497574
vn 0.559787 0.828637 -0.000000
vn 0.491460 0.184030 0.851234
vn 0.851234 0.184030 0.491460
vn 0.828849 0.289850 0.478536
vn 0.478536 0.289850 0.828849
vn 0.000000 0.570630 -0.821207
vn -0.000000 0.828637 -0.559787
vn -0.821207 0.570630 0.000000
vn -0.270004 0.962859 0.000000
vn -0.861823 0.098399 0.497574
vn 0.497573 0.098399 -0.861823
vn 0.499993 -0.005410 -0.866013
vn -0.866013 -0.005409 0.499993
vn -0.957072 0.289850 0.000000
vn -0.000000 0.289850 -0.957072
vn -0.410604 0.570630 -0.711186
vn -0.211848 0.905805 -0.366931
vn -0.711186 0.570630 -0.410604
vn -0.283549 0.944881 -0.163707
vn 0.493876 -0.156039 -0.855417
vn -0.855417 -0.156039 0.493876
vn -0.982921 0.184030 -0.000000
vn -0.000000 0.184030 -0.982921
vn 0.102725 -0.978667 -0.177926
vn -0.395655 -0.889537 0.228431
vn -0.987751 -0.156039 0.000000
vn -0.999985 -0.005409 0.000000
vn 0.000000 -0.156039 -0.987751
vn 0.000000 -0.980683 -0.195605
vn -0.311037 -0.950398 -0.000000
vn -0.478536 0.289850 -0.828849
vn -0.828849 0.289850 -0.478536
vn -0.000000 0.098399 -0.995147
vn -0.995147 0.098399 0.000000
vn -0.855417 -0.156039 -0.493876
vn -0.866013 -0.005409 -0.499993
vn -0.493876 -0.156039 -0.855417
vn -0.102725 -0.978668 -0.177926
vn 0.000000 -0.005410 -0.999985
vn -0.206944 -0.971030 -0.119479
vn -0.851234 0.184030 -0.491460
vn -0.491460 0.184030 -0.851234
vn -0.497574 0.098399 -0.861823
vn -0.861823 0.098399 -0.497574
vn -0.499993 -0.005410 -0.866013
s 1
g torreta_toxica_mejora2_soften_edge_1:curve6
usemtl initialShadingGroup
f 2/2/1 3/3/2 1/1/3 4/4/4
f 7/7/5 5/5/6 6/6/7 19/19/8
f 8/8/9 9/9/10 10/10/11 11/11/12
f 12/12/13 13/13/14 14/14/15 15/15/16
f 5/5/6 7/7/5 16/16/17 30/30/18
f 3/3/2 2/2/1 20/20/19 21/21/20
f 22/22/21 16/16/17 7/7/5 29/29/22
f 23/23/23 2/2/1 4/4/4 28/28/24
f 15/15/16 14/14/15 24/24/25 25/25/26
f 11/11/12 10/10/11 26/26/27 27/27/28
f 29/29/22 7/7/5 19/19/8 35/35/29
f 21/21/20 20/20/19 31/31/30 32/32/31
f 19/19/8 6/6/7 33/33/32 34/34/33
f 25/25/26 24/24/25 36/36/34 37/37/35
f 27/27/28 26/26/27 17/17/36 38/38/37
f 36/36/34 24/24/25 39/39/38 42/43/39
f 32/32/31 31/31/30 40/40/40 13/13/14
f 34/34/33 33/33/32 8/41/9 41/42/41
f 28/28/24 22/22/21 29/29/22 23/23/23
f 2/2/1 23/23/23 43/44/42 20/20/19
f 41/42/41 8/41/9 11/45/12 44/46/43
f 13/13/14 40/40/40 45/47/44 14/14/15
f 48/50/45 46/48/46 47/49/47 49/51/48
f 14/14/15 45/47/44 39/39/38 24/24/25
f 44/46/43 11/45/12 27/52/28 50/53/49
f 20/20/19 43/44/42 51/54/50 31/31/30
f 35/35/29 19/19/8 34/34/33 52/55/51
f 23/23/23 29/29/22 35/35/29 43/44/42
f 50/53/49 27/52/28 38/56/37 53/57/52
f 31/31/30 51/54/50 54/58/53 40/40/40
f 52/55/51 34/34/33 41/42/41 55/59/54
f 43/44/42 35/35/29 52/55/51 51/54/50
f 55/59/54 41/42/41 44/46/43 57/61/55
f 40/40/40 54/58/53 58/62/56 45/47/44
f 51/54/50 52/55/51 55/59/54 54/58/53
f 57/61/55 44/46/43 50/53/49 49/51/48
f 45/47/44 58/62/56 47/49/47 39/39/38
f 49/51/48 50/53/49 53/57/52 48/50/45
f 39/39/38 47/49/47 46/48/46 42/43/39
f 54/58/53 55/59/54 57/61/55 58/62/56
f 58/62/56 57/61/55 49/51/48 47/49/47
f 26/26/27 59/63/57 18/18/58 17/17/36
f 60/64/59 25/25/26 37/37/35 56/60/60
f 61/65/61 32/32/31 13/13/14 12/12/13
f 33/66/32 62/67/62 9/9/10 8/8/9
f 6/69/7 64/70/63 62/67/62 33/66/32
f 65/71/64 21/21/20 32/32/31 61/65/61
f 67/73/65 15/15/16 25/25/26 60/64/59
f 10/10/11 68/74/66 59/63/57 26/26/27
f 59/63/57 69/75/67 63/68/68 18/18/58
f 70/76/69 60/64/59 56/60/60 66/72/70
f 5/77/6 71/78/71 64/70/63 6/69/7
f 72/79/72 3/3/2 21/21/20 65/71/64
f 73/80/73 12/12/13 15/15/16 67/73/65
f 9/9/10 74/81/74 68/74/66 10/10/11
f 69/75/67 70/76/69 66/72/70 63/68/68
f 30/82/18 75/83/75 71/78/71 5/77/6
f 76/84/76 1/1/3 3/3/2 72/79/72
f 77/85/77 72/79/72 65/71/64 80/88/78
f 78/86/79 71/78/71 75/83/75 85/93/80
f 79/87/81 76/84/76 72/79/72 77/85/77
f 68/74/66 81/89/82 69/75/67 59/63/57
f 82/90/83 67/73/65 60/64/59 70/76/69
f 62/67/62 83/91/84 74/81/74 9/9/10
f 84/92/85 61/65/61 12/12/13 73/80/73
f 81/89/82 82/90/83 70/76/69 69/75/67
f 86/94/86 77/85/77 80/88/78 87/95/87
f 88/96/88 78/86/79 85/93/80 93/101/89
f 80/88/78 65/71/64 61/65/61 84/92/85
f 64/70/63 89/97/90 83/91/84 62/67/62
f 90/98/91 79/87/81 77/85/77 86/94/86
f 91/99/92 73/80/73 67/73/65 82/90/83
f 74/81/74 92/100/93 81/89/82 68/74/66
f 71/78/71 78/86/79 89/97/90 64/70/63
f 92/100/93 91/99/92 82/90/83 81/89/82
f 83/91/84 94/102/94 92/100/93 74/81/74
f 95/103/95 84/92/85 73/80/73 91/99/92
f 94/102/94 95/103/95 91/99/92 92/100/93
f 87/95/87 80/88/78 84/92/85 95/103/95
f 89/97/90 96/104/96 94/102/94 83/91/84
f 78/86/79 88/96/88 96/104/96 89/97/90
f 96/104/96 87/95/87 95/103/95 94/102/94
f 88/96/88 86/94/86 87/95/87 96/104/96
f 93/101/89 90/98/91 86/94/86 88/96/88
f 18/18/58 63/68/68 17/17/36
f 63/68/68 66/72/70 17/17/36
f 66/72/70 56/60/60 17/17/36
f 56/60/60 37/37/35 17/17/36
f 37/37/35 36/36/34 17/17/36
f 36/36/34 42/43/39 17/17/36
f 17/17/36 42/43/39 38/38/37
f 42/43/39 46/48/46 38/38/37
f 46/48/46 48/50/45 38/38/37
f 48/50/45 53/57/52 38/38/37
f 1/1/3 76/84/76 4/4/4
f 76/84/76 79/87/81 4/4/4
f 79/87/81 90/98/91 4/4/4
f 90/98/91 93/101/89 4/4/4
f 93/101/89 85/93/80 4/4/4
f 85/93/80 75/83/75 4/4/4
f 75/83/75 30/30/18 4/4/4
f 30/30/18 16/16/17 4/4/4
f 16/16/17 22/22/21 4/4/4
f 22/22/21 28/28/24 4/4/4
