# This file uses centimeters as units for non-parametric coordinates.

mtllib Boss_Piso3.mtl
g default
v 28.923943 14.468277 26.291500
v 42.037655 14.467575 -4.314743
v -0.635466 14.386276 38.534317
v -1.085429 14.815735 -1.495010
v 29.276400 14.378677 -34.088417
v -30.689470 14.378677 26.101860
v -0.777606 14.386276 -46.520874
v -43.450726 14.467575 -3.671814
v -30.337013 14.468277 -34.278053
v -24.161530 14.380325 28.802277
v 5.750335 14.384628 -43.820457
v -7.550764 14.384521 35.673660
v 22.361103 14.380432 -36.949074
v 39.058731 14.467735 2.637802
v -33.315937 14.468117 -27.325516
v 31.681805 14.468124 19.854900
v -40.692867 14.467712 -10.108414
v -23.896109 14.450409 -36.945724
v -7.615141 14.405243 -43.688927
v 22.345320 14.450027 29.016212
v 6.032604 14.404770 35.772552
v -33.370266 14.397354 19.847214
v -40.553925 14.447395 3.086807
v 32.048489 14.397987 -27.620773
v 39.171474 14.447609 -11.001907
v -10.297793 8.884689 51.710091
v -33.619602 8.880493 42.062546
v 31.698997 8.880592 -50.253517
v 8.377187 8.884796 -59.901062
v 44.785427 8.968292 29.500271
v 55.142769 8.967903 5.327160
v -56.829895 8.967880 -12.568756
v -46.472553 8.968285 -36.741867
v -33.246948 8.950577 -50.248817
v -10.388181 8.905411 -59.716385
v 31.676842 8.950195 42.362915
v 8.773499 8.904938 51.848946
v -46.548828 8.897522 29.489475
v -56.634808 8.947563 5.957569
v 45.300262 8.898155 -37.156418
v 55.301060 8.947777 -13.823235
v 28.923943 9.010536 26.291500
v 31.681805 9.010384 19.854900
v -0.635466 8.928535 38.534317
v -7.550764 8.926781 35.673660
v 29.276400 8.920944 -34.088417
v 22.361101 8.922684 -36.949074
v -43.450726 9.009834 -3.671814
v -40.692871 9.009972 -10.108414
v 22.345320 8.992287 29.016212
v -30.689470 8.920937 26.101860
v -33.370266 8.939613 19.847214
v -30.337013 9.010536 -34.278053
v -23.896109 8.992668 -36.945724
v 32.048489 8.940247 -27.620773
v -24.161530 8.922585 28.802277
v 5.750334 8.926888 -43.820457
v -0.777606 8.928535 -46.520874
v 39.058731 9.009995 2.637802
v 42.037655 9.009834 -4.314743
v -33.315937 9.010376 -27.325516
v -7.615141 8.947502 -43.688927
v 6.032604 8.947029 35.772552
v -40.553925 8.989655 3.086807
v 39.171474 8.989868 -11.001907
vt 0.489420 0.883251
vt 0.207432 0.784156
vt 0.509944 0.520763
vt 0.756791 0.785029
vt 0.880084 0.516596
vt 0.111180 0.506109
vt 0.214288 0.226855
vt 0.491649 0.131304
vt 0.779455 0.234603
vt 0.868665 0.575481
vt 0.180602 0.278106
vt 0.790338 0.730818
vt 0.125866 0.443527
vt 0.260886 0.819048
vt 0.554397 0.144486
vt 0.432529 0.872058
vt 0.728245 0.200476
vt 0.432513 0.142780
vt 0.268327 0.192832
vt 0.547393 0.871180
vt 0.708124 0.819684
vt 0.866561 0.458620
vt 0.813624 0.287938
vt 0.123193 0.564558
vt 0.173648 0.731524
vt 0.990648 0.686193
vt 0.876457 0.781427
vt 0.029419 0.416295
vt 0.017076 0.267696
vt 0.407623 0.970000
vt 0.251758 0.982485
vt 0.582596 0.047993
vt 0.739340 0.037027
vt 0.262101 0.029144
vt 0.408506 0.045809
vt 0.716661 0.983609
vt 0.571880 0.968161
vt 0.977811 0.280901
vt 0.964067 0.432953
vt 0.009522 0.739378
vt 0.025355 0.589984
vt 0.490138 0.927623
vt 0.431876 0.924173
vt 0.827103 0.771324
vt 0.788996 0.814894
vt 0.064340 0.505171
vt 0.073620 0.442615
vt 0.770393 0.162841
vt 0.808580 0.205681
vt 0.544799 0.925825
vt 0.922006 0.456432
vt 0.926858 0.516148
vt 0.435351 0.088148
vt 0.490707 0.087453
vt 0.067724 0.566836
vt 0.920717 0.575244
vt 0.142843 0.236054
vt 0.182940 0.196359
vt 0.219085 0.857025
vt 0.178040 0.813013
vt 0.553862 0.091955
vt 0.230869 0.155809
vt 0.745435 0.855710
vt 0.848338 0.242980
vt 0.138871 0.776542
vt 0.135324 0.772990
vt 0.852145 0.246617
vt 0.748926 0.859492
vt 0.227907 0.152686
vt 0.554783 0.089341
vt 0.215974 0.853500
vt 0.144729 0.234071
vt 0.926798 0.578571
vt 0.070718 0.564531
vt 0.438113 0.086435
vt 0.919234 0.458293
vt 0.543012 0.927571
vt 0.774063 0.166629
vt 0.070468 0.440222
vt 0.827195 0.774179
vt 0.435536 0.926740
vn 0.005141 0.999963 0.006952
vn 0.008305 0.999959 0.003535
vn -0.000088 1.000000 0.000342
vn -0.004712 0.999931 0.010781
vn -0.006700 0.999940 0.008649
vn 0.004186 0.999946 -0.009509
vn 0.001465 0.999954 -0.009528
vn -0.008042 0.999962 -0.003423
vn -0.008290 0.999965 0.001405
vn 0.001661 0.999941 0.010709
vn -0.008559 0.999941 0.006654
vn -0.008559 0.999941 0.006654
vn -0.001180 0.999954 -0.009546
vn -0.001180 0.999954 -0.009546
vn 0.007663 0.999951 -0.006270
vn 0.005809 0.999951 -0.007998
vn -0.004713 0.999931 0.010781
vn 0.004186 0.999946 -0.009509
vn -0.001539 0.999941 0.010745
vn 0.008304 0.999959 0.003535
vn 0.007963 0.999967 -0.001684
vn -0.008042 0.999962 -0.003422
vn -0.004532 0.999968 -0.006554
vn 0.001662 0.999941 0.010709
vn 0.007663 0.999951 -0.006270
vn -0.125348 0.944860 0.302534
vn -0.125348 0.944860 0.302534
vn -0.125348 0.944860 0.302534
vn -0.125348 0.944860 0.302534
vn 0.125385 0.944827 -0.302623
vn 0.125385 0.944827 -0.302623
vn 0.125385 0.944827 -0.302623
vn 0.125385 0.944827 -0.302623
vn 0.301444 0.944698 0.129141
vn 0.301444 0.944698 0.129141
vn 0.301444 0.944698 0.129141
vn 0.301444 0.944698 0.129141
vn -0.302150 0.944431 -0.129442
vn -0.302150 0.944431 -0.129442
vn -0.302150 0.944431 -0.129442
vn -0.302150 0.944431 -0.129442
vn -0.123447 0.944859 -0.303318
vn -0.123447 0.944859 -0.303318
vn -0.123447 0.944859 -0.303318
vn -0.123447 0.944859 -0.303318
vn 0.123213 0.945070 0.302755
vn 0.123213 0.945071 0.302755
vn 0.123213 0.945071 0.302755
vn 0.123213 0.945070 0.302755
vn -0.299421 0.945129 0.130682
vn -0.299421 0.945129 0.130682
vn -0.299421 0.945129 0.130682
vn -0.299421 0.945129 0.130682
vn 0.299005 0.945285 -0.130504
vn 0.299005 0.945285 -0.130504
vn 0.299005 0.945285 -0.130504
vn 0.299005 0.945285 -0.130504
vn 0.919180 0.000000 0.393837
vn 0.919180 0.000000 0.393837
vn 0.919180 0.000000 0.393837
vn 0.919180 0.000000 0.393837
vn -0.382256 0.000000 0.924057
vn -0.382255 0.000000 0.924057
vn -0.382256 0.000000 0.924057
vn -0.382255 0.000000 0.924057
vn 0.382255 -0.000000 -0.924057
vn 0.382255 -0.000000 -0.924057
vn 0.382255 -0.000000 -0.924057
vn 0.382255 -0.000000 -0.924057
vn -0.919181 0.000001 -0.393836
vn -0.919181 0.000001 -0.393836
vn -0.919181 0.000001 -0.393836
vn -0.919181 0.000001 -0.393836
vn 0.382654 0.000000 0.923892
vn 0.382654 0.000000 0.923892
vn 0.382654 0.000000 0.923892
vn 0.382654 0.000000 0.923892
vn -0.919133 0.000000 0.393948
vn -0.919133 0.000000 0.393948
vn -0.919133 0.000000 0.393948
vn -0.919133 0.000000 0.393948
vn -0.382654 0.000000 -0.923892
vn -0.382654 0.000000 -0.923892
vn -0.382654 0.000000 -0.923892
vn -0.382654 0.000000 -0.923892
vn 0.919133 0.000000 -0.393948
vn 0.919133 0.000000 -0.393948
vn 0.919133 0.000000 -0.393948
vn 0.919133 0.000000 -0.393948
vn -0.382255 0.000000 0.924057
vn -0.382255 0.000000 0.924057
vn -0.382255 0.000000 0.924057
vn -0.382255 0.000000 0.924057
vn 0.382255 -0.000000 -0.924057
vn 0.382255 -0.000000 -0.924057
vn 0.382255 -0.000000 -0.924057
vn 0.382255 -0.000000 -0.924057
vn 0.919180 0.000000 0.393837
vn 0.919180 0.000000 0.393837
vn 0.919180 0.000000 0.393837
vn 0.919180 0.000000 0.393837
vn -0.919180 0.000000 -0.393837
vn -0.919180 0.000000 -0.393837
vn -0.919180 0.000000 -0.393837
vn -0.919180 0.000000 -0.393837
vn -0.382654 0.000000 -0.923892
vn -0.382654 0.000000 -0.923892
vn -0.382654 0.000000 -0.923892
vn -0.382654 0.000000 -0.923892
vn 0.382655 0.000000 0.923891
vn 0.382655 0.000000 0.923891
vn 0.382655 0.000000 0.923891
vn 0.382655 0.000000 0.923891
vn -0.919133 0.000000 0.393948
vn -0.919133 0.000000 0.393948
vn -0.919133 0.000000 0.393948
vn -0.919133 0.000000 0.393948
vn 0.919132 0.000000 -0.393949
vn 0.919132 0.000000 -0.393949
vn 0.919132 0.000000 -0.393949
vn 0.919132 0.000000 -0.393949
vn -0.592803 0.000000 0.805347
vn -0.592803 0.000000 0.805347
vn -0.592803 0.000000 0.805347
vn 0.985644 0.000000 0.168840
vn 0.985644 0.000000 0.168840
vn 0.985644 0.000000 0.168840
vn 0.818515 -0.000001 0.574485
vn 0.818515 -0.000001 0.574485
vn 0.818515 -0.000001 0.574485
vn -0.150724 0.000000 0.988576
vn -0.150724 0.000000 0.988576
vn -0.150724 0.000000 0.988576
vn 0.819554 0.000000 -0.573002
vn 0.819554 0.000000 -0.573002
vn 0.819554 0.000000 -0.573002
vn 0.590486 0.000000 0.807048
vn 0.590487 0.000000 0.807048
vn 0.590486 0.000000 0.807048
vn -0.818113 0.000000 0.575057
vn -0.818113 0.000000 0.575057
vn -0.818113 0.000000 0.575057
vn -0.584077 0.000000 -0.811698
vn -0.584077 0.000000 -0.811698
vn -0.584077 0.000000 -0.811698
vn -0.814127 0.000000 -0.580687
vn -0.814127 0.000000 -0.580687
vn -0.814127 0.000000 -0.580687
vn -0.986919 0.000000 -0.161218
vn -0.986919 0.000000 -0.161218
vn -0.986919 0.000000 -0.161218
vn 0.164917 0.000000 -0.986307
vn 0.164917 0.000000 -0.986307
vn 0.164917 0.000000 -0.986307
vn 0.582006 0.000000 -0.813184
vn 0.582006 0.000000 -0.813184
vn 0.582006 0.000000 -0.813184
vn 0.985360 0.000000 -0.170485
vn 0.985360 0.000000 -0.170485
vn 0.985360 0.000000 -0.170485
vn -0.985776 0.000000 0.168067
vn -0.985776 0.000000 0.168067
vn -0.985776 0.000000 0.168067
vn -0.175742 0.000000 -0.984436
vn -0.175742 0.000000 -0.984436
vn -0.175742 0.000000 -0.984436
vn 0.172300 0.000000 0.985045
vn 0.172300 0.000000 0.985045
vn 0.172300 0.000000 0.985045
s 1
g Piso_3
usemtl lambert14SG
f 1/1/1 16/16/2 4/3/3
f 10/10/4 4/3/3 6/5/5
f 4/3/3 11/11/6 7/7/7
f 4/3/3 17/17/8 8/9/9
f 4/3/3 20/20/10 1/1/1
f 22/22/11 4/3/3 23/23/12
f 4/3/3 19/19/13 18/18/14
f 4/3/3 24/24/15 5/6/16
f 12/12/17 4/3/3 10/10/4
f 4/3/3 13/13/18 11/11/6
f 3/4/19 4/3/3 12/12/17
f 4/3/3 5/6/16 13/13/18
f 4/3/3 14/14/20 2/2/21
f 15/15/22 4/3/3 9/8/23
f 4/3/3 16/16/2 14/14/20
f 17/17/8 4/3/3 15/15/22
f 4/3/3 7/7/7 19/19/13
f 4/3/3 18/18/14 9/8/23
f 3/4/19 21/21/24 4/3/3
f 4/3/3 21/21/24 20/20/10
f 23/23/12 4/3/3 8/9/9
f 6/5/5 4/3/3 22/22/11
f 2/2/21 25/25/25 4/3/3
f 4/3/3 25/25/25 24/24/15
s off
f 12/12/26 10/10/27 27/26/28 26/27/29
f 11/11/30 13/13/31 28/28/32 29/29/33
f 14/14/34 16/16/35 30/30/36 31/31/37
f 17/17/38 15/15/39 33/32/40 32/33/41
f 18/18/42 19/19/43 35/34/44 34/35/45
f 20/20/46 21/21/47 37/36/48 36/37/49
f 22/22/50 23/23/51 39/38/52 38/39/53
f 24/24/54 25/25/55 41/40/56 40/41/57
f 16/16/58 1/1/59 42/42/60 43/43/61
f 3/4/62 12/12/63 45/80/64 44/45/65
f 13/13/66 5/6/67 46/46/68 47/47/69
f 8/9/70 17/17/71 49/78/72 48/49/73
f 1/1/74 20/20/75 50/77/76 42/42/77
f 6/5/78 22/22/79 52/76/80 51/52/81
f 9/8/82 18/18/83 54/75/84 53/54/85
f 5/6/86 24/24/87 55/74/88 46/46/89
f 10/10/90 6/5/91 51/52/92 56/56/93
f 7/7/94 11/11/95 57/72/96 58/58/97
f 2/2/98 14/14/99 59/71/100 60/60/101
f 15/15/102 9/8/103 53/54/104 61/61/105
f 19/19/106 7/7/107 58/58/108 62/62/109
f 21/21/110 3/4/111 44/45/112 63/63/113
f 23/23/114 8/9/115 48/49/116 64/64/117
f 25/25/118 2/2/119 60/60/120 65/65/121
f 16/16/122 43/81/123 30/30/124
f 45/44/125 12/12/126 26/27/127
f 13/13/128 47/79/129 28/28/130
f 49/48/131 17/17/132 32/33/133
f 50/50/134 20/20/135 36/37/136
f 52/51/137 22/22/138 38/39/139
f 54/53/140 18/18/141 34/35/142
f 55/55/143 24/24/144 40/41/145
f 10/10/146 56/73/147 27/26/148
f 57/57/149 11/11/150 29/29/151
f 59/59/152 14/14/153 31/31/154
f 15/15/155 61/70/156 33/32/157
f 19/19/158 62/69/159 35/34/160
f 21/21/161 63/68/162 37/36/163
f 23/23/164 64/67/165 39/38/166
f 25/25/167 65/66/168 41/40/169
