# This file uses centimeters as units for non-parametric coordinates.

mtllib PlaneClicle.mtl
g default
v -0.707943 -0.000004 0.707943
v 0.000000 -0.000004 1.001183
v 0.707943 -0.000004 0.707943
v -1.001183 -0.000004 -0.000000
v 0.000000 -0.000006 -0.000000
v 1.001183 -0.000004 -0.000000
v -0.707943 -0.000004 -0.707943
v 0.000000 -0.000004 -1.001183
v 0.707943 -0.000004 -0.707943
v 0.383136 -0.000004 -0.924973
v -0.383136 -0.000004 -0.924973
v -0.924972 -0.000004 -0.383136
v 0.924972 -0.000004 -0.383136
v 0.924972 -0.000004 0.383136
v 0.383136 -0.000004 0.924972
v -0.383136 -0.000004 0.924972
v -0.924972 -0.000004 0.383136
vt 0.065821 0.055683
vt 0.146202 0.021149
vt 0.227459 0.053567
vt 0.033403 0.136940
vt 0.147698 0.135444
vt 0.261993 0.133948
vt 0.067937 0.217321
vt 0.149194 0.249739
vt 0.229575 0.215205
vt 0.192819 0.240466
vt 0.105341 0.241611
vt 0.042675 0.180565
vt 0.253865 0.177800
vt 0.252720 0.090323
vt 0.190054 0.029276
vt 0.102577 0.030421
vt 0.041530 0.093087
vn 0.000000 1.000000 0.000000
vn 0.000001 1.000000 -0.000002
vn 0.000000 1.000000 -0.000002
vn -0.000002 1.000000 -0.000001
vn -0.000002 1.000000 -0.000000
vn 0.000001 1.000000 0.000002
vn 0.000000 1.000000 0.000002
vn -0.000001 1.000000 0.000002
vn -0.000002 1.000000 0.000001
vn 0.000002 1.000000 0.000000
vn 0.000002 1.000000 0.000001
vn 0.000001 1.000000 0.000001
vn -0.000001 1.000000 0.000001
vn -0.000001 1.000000 -0.000002
vn -0.000001 1.000000 -0.000001
vn 0.000001 1.000000 -0.000001
vn 0.000002 1.000000 -0.000001
s 1
g PlanoCircular
usemtl initialShadingGroup
f 5/5/1 16/16/2 2/2/3
f 5/5/1 14/14/4 6/6/5
f 11/11/6 5/5/1 8/8/7
f 5/5/1 10/10/8 8/8/7
f 5/5/1 6/6/5 13/13/9
f 4/4/10 5/5/1 12/12/11
f 7/7/12 5/5/1 11/11/6
f 5/5/1 13/13/9 9/9/13
f 2/2/3 15/15/14 5/5/1
f 5/5/1 3/3/15 14/14/4
f 1/1/16 16/16/2 5/5/1
f 17/17/17 5/5/1 4/4/10
f 12/12/11 5/5/1 7/7/12
f 5/5/1 15/15/14 3/3/15
f 5/5/1 9/9/13 10/10/8
f 1/1/16 5/5/1 17/17/17
