# This file uses centimeters as units for non-parametric coordinates.

mtllib Boss_Piso2.mtl
g default
v 24.213331 9.282875 58.438644
v 62.264824 9.282234 21.579971
v -26.689632 9.208199 58.242645
v -2.619137 9.599312 -1.000031
v 61.831642 9.201279 -29.956009
v -63.156479 9.201279 21.530266
v 25.364798 9.208199 -66.668396
v -63.589661 9.282234 -30.005714
v -25.538168 9.282875 -66.864388
v -55.235622 9.202782 29.504452
v 33.285652 9.206696 -58.694210
v -35.080498 9.206596 49.795284
v 53.440781 9.202866 -38.403381
v 53.621017 9.282387 29.952820
v -34.181980 9.282730 -58.491543
v 32.215694 9.282738 50.687141
v -55.587307 9.282364 -37.757221
v -14.446568 9.266602 -66.821686
v 13.590178 9.225471 -66.713730
v 12.884571 9.266258 58.395027
v -15.206841 9.225037 58.286861
v -63.247475 9.218285 10.703949
v -63.491333 9.263863 -18.307049
v 61.925743 9.218864 -18.761002
v 62.167530 9.264053 10.004990
v -45.860771 4.197845 66.765892
v -72.339935 4.194023 40.108437
v 70.435669 4.194115 -49.106705
v 43.956505 4.197945 -75.764153
v 42.550827 4.273987 67.937576
v 70.672455 4.273628 40.697491
v -72.801956 4.273613 -48.257805
v -44.680328 4.273979 -75.497894
v -18.752573 4.257851 -86.441772
v 18.081211 4.216721 -86.299942
v 17.154217 4.257507 78.063957
v -19.751392 4.216286 77.921860
v -82.865646 4.209534 15.408932
v -83.186012 4.255104 -22.704788
v 81.582947 4.210114 -23.301186
v 81.900589 4.255302 14.490662
v 24.213331 4.312454 58.438644
v 32.215694 4.312317 50.687141
v -26.689632 4.237778 58.242645
v -35.080498 4.236183 49.795284
v 61.831642 4.230858 -29.956009
v 53.440781 4.232452 -38.403381
v -63.589661 4.311821 -30.005714
v -55.587307 4.311943 -37.757221
v 12.884571 4.295837 58.395027
v -63.156479 4.230858 21.530266
v -63.247475 4.247864 10.703949
v -25.538168 4.312454 -66.864388
v -14.446568 4.296181 -66.821686
v 61.925743 4.248444 -18.761002
v -55.235622 4.232361 29.504452
v 33.285652 4.236275 -58.694210
v 25.364798 4.237778 -66.668396
v 53.621017 4.311966 29.952820
v 62.264824 4.311821 21.579971
v -34.181980 4.312309 -58.491543
v 13.590178 4.255051 -66.713730
v -15.206841 4.254623 58.286861
v -63.491333 4.293442 -18.307049
v 62.167530 4.293633 10.004990
vt 0.484127 0.906501
vt 0.182822 0.795002
vt 0.506079 0.514440
vt 0.771808 0.800089
vt 0.904092 0.512076
vt 0.078080 0.497116
vt 0.193087 0.199319
vt 0.489772 0.095302
vt 0.796002 0.210647
vt 0.890193 0.575659
vt 0.156912 0.255003
vt 0.808331 0.741258
vt 0.094947 0.429475
vt 0.241090 0.832610
vt 0.557629 0.110603
vt 0.422253 0.893290
vt 0.740670 0.174048
vt 0.425808 0.108166
vt 0.252036 0.163222
vt 0.547317 0.892991
vt 0.717888 0.836614
vt 0.889650 0.449405
vt 0.831976 0.268979
vt 0.091452 0.560539
vt 0.147006 0.737435
vt 0.994075 0.670553
vt 0.889913 0.777726
vt 0.012182 0.394691
vt 0.017190 0.245038
vt 0.389572 0.977525
vt 0.232176 0.972128
vt 0.593047 0.027591
vt 0.751423 0.034778
vt 0.247402 0.023033
vt 0.394902 0.024533
vt 0.724359 0.977004
vt 0.578762 0.976570
vt 0.972271 0.263604
vt 0.974029 0.417183
vt 0.006618 0.743425
vt 0.006988 0.592788
vt 0.485062 0.951192
vt 0.421542 0.946309
vt 0.846584 0.782830
vt 0.804321 0.830116
vt 0.031030 0.495907
vt 0.042138 0.428164
vt 0.783243 0.134288
vt 0.825803 0.181562
vt 0.545040 0.949445
vt 0.946907 0.447470
vt 0.951193 0.512155
vt 0.428357 0.051717
vt 0.488766 0.051093
vt 0.034181 0.562614
vt 0.942889 0.576537
vt 0.117003 0.212551
vt 0.161383 0.168646
vt 0.198925 0.872752
vt 0.152875 0.824152
vt 0.557394 0.057290
vt 0.214246 0.125444
vt 0.755759 0.873521
vt 0.867610 0.224113
vt 0.111461 0.782480
vt 0.105989 0.778745
vt 0.873180 0.227819
vt 0.758513 0.879082
vt 0.211822 0.120420
vt 0.558800 0.053669
vt 0.195752 0.867373
vt 0.120708 0.210695
vt 0.949483 0.578834
vt 0.038354 0.560300
vt 0.431420 0.051364
vt 0.942871 0.449378
vt 0.542829 0.949811
vt 0.786911 0.139900
vt 0.037793 0.425615
vt 0.845315 0.784891
vt 0.424272 0.949845
vn 0.001165 0.999988 0.004798
vn 0.003600 0.999987 0.003699
vn -0.000115 1.000000 0.000151
vn -0.004851 0.999978 0.004631
vn -0.005428 0.999981 0.003081
vn 0.004329 0.999982 -0.004111
vn 0.002887 0.999985 -0.004726
vn -0.003493 0.999987 -0.003589
vn -0.004687 0.999988 -0.001080
vn -0.001490 0.999981 0.005996
vn -0.005972 0.999981 0.001621
vn -0.005971 0.999981 0.001621
vn 0.001487 0.999985 -0.005322
vn 0.001488 0.999985 -0.005322
vn 0.005449 0.999984 -0.001617
vn 0.004853 0.999984 -0.002945
vn -0.004852 0.999978 0.004631
vn 0.004329 0.999982 -0.004111
vn -0.003179 0.999981 0.005310
vn 0.003600 0.999987 0.003699
vn 0.004580 0.999989 0.000882
vn -0.003493 0.999988 -0.003589
vn -0.000955 0.999990 -0.004472
vn -0.001490 0.999981 0.005996
vn 0.005449 0.999984 -0.001617
vn -0.175671 0.968889 0.174339
vn -0.175671 0.968889 0.174339
vn -0.175671 0.968889 0.174339
vn -0.175671 0.968889 0.174339
vn 0.175736 0.968866 -0.174403
vn 0.175736 0.968866 -0.174403
vn 0.175736 0.968866 -0.174403
vn 0.175736 0.968866 -0.174403
vn 0.172426 0.968808 0.177991
vn 0.172426 0.968808 0.177991
vn 0.172426 0.968808 0.177991
vn 0.172426 0.968808 0.177991
vn -0.172938 0.968619 -0.178519
vn -0.172938 0.968619 -0.178519
vn -0.172938 0.968619 -0.178519
vn -0.172938 0.968619 -0.178519
vn 0.002182 0.968874 -0.247544
vn 0.002182 0.968874 -0.247544
vn 0.002182 0.968874 -0.247544
vn 0.002182 0.968874 -0.247544
vn -0.002180 0.969023 0.246962
vn -0.002180 0.969023 0.246962
vn -0.002180 0.969023 0.246962
vn -0.002180 0.969023 0.246962
vn -0.246898 0.969035 0.003391
vn -0.246898 0.969035 0.003391
vn -0.246898 0.969035 0.003391
vn -0.246898 0.969035 0.003391
vn 0.246463 0.969146 -0.003388
vn 0.246463 0.969146 -0.003388
vn 0.246463 0.969146 -0.003388
vn 0.246463 0.969146 -0.003388
vn 0.695759 0.000000 0.718275
vn 0.695759 0.000000 0.718275
vn 0.695759 0.000000 0.718275
vn 0.695759 0.000000 0.718275
vn -0.709475 0.000000 0.704730
vn -0.709475 0.000000 0.704731
vn -0.709475 0.000000 0.704731
vn -0.709475 0.000000 0.704730
vn 0.709476 0.000000 -0.704730
vn 0.709476 0.000000 -0.704730
vn 0.709476 0.000000 -0.704730
vn 0.709476 0.000000 -0.704730
vn -0.695759 0.000000 -0.718275
vn -0.695759 0.000000 -0.718275
vn -0.695759 0.000000 -0.718275
vn -0.695759 0.000000 -0.718275
vn -0.003850 0.000000 0.999993
vn -0.003850 0.000000 0.999993
vn -0.003850 0.000000 0.999993
vn -0.003850 0.000000 0.999993
vn -0.999965 0.000000 0.008405
vn -0.999965 0.000000 0.008405
vn -0.999965 0.000000 0.008405
vn -0.999965 0.000000 0.008405
vn 0.003850 0.000000 -0.999993
vn 0.003850 0.000000 -0.999993
vn 0.003850 0.000000 -0.999993
vn 0.003850 0.000000 -0.999993
vn 0.999965 0.000000 -0.008405
vn 0.999965 0.000000 -0.008405
vn 0.999965 0.000000 -0.008405
vn 0.999965 0.000000 -0.008405
vn -0.709475 0.000000 0.704730
vn -0.709475 0.000000 0.704731
vn -0.709475 0.000000 0.704730
vn -0.709475 0.000000 0.704731
vn 0.709475 0.000000 -0.704730
vn 0.709475 0.000000 -0.704730
vn 0.709475 0.000000 -0.704730
vn 0.709475 0.000000 -0.704730
vn 0.695759 0.000000 0.718275
vn 0.695759 0.000000 0.718275
vn 0.695759 0.000000 0.718275
vn 0.695759 0.000000 0.718275
vn -0.695759 0.000000 -0.718275
vn -0.695759 0.000000 -0.718275
vn -0.695759 0.000000 -0.718275
vn -0.695759 0.000000 -0.718275
vn 0.003850 0.000000 -0.999993
vn 0.003850 0.000000 -0.999993
vn 0.003850 0.000000 -0.999993
vn 0.003850 0.000000 -0.999993
vn -0.003850 0.000000 0.999993
vn -0.003850 0.000000 0.999993
vn -0.003850 0.000000 0.999993
vn -0.003850 0.000000 0.999993
vn -0.999965 0.000000 0.008405
vn -0.999965 0.000000 0.008405
vn -0.999965 0.000000 0.008405
vn -0.999965 0.000000 0.008405
vn 0.999965 0.000000 -0.008405
vn 0.999965 0.000000 -0.008405
vn 0.999965 0.000000 -0.008405
vn 0.999965 0.000000 -0.008405
vn -0.857825 0.000000 0.513942
vn -0.857825 0.000000 0.513942
vn -0.857825 0.000000 0.513942
vn 0.844094 0.000000 0.536196
vn 0.844094 0.000000 0.536196
vn 0.844094 0.000000 0.536196
vn 0.532914 0.000000 0.846169
vn 0.532914 0.000000 0.846169
vn 0.532914 0.000000 0.846169
vn -0.520746 0.000000 0.853711
vn -0.520746 0.000000 0.853711
vn -0.520747 0.000000 0.853711
vn 0.977240 0.000000 -0.212135
vn 0.977240 0.000000 -0.212135
vn 0.977240 0.000000 -0.212135
vn 0.233215 0.000000 0.972425
vn 0.233215 0.000000 0.972425
vn 0.233215 0.000000 0.972425
vn -0.976753 0.000000 0.214367
vn -0.976753 0.000000 0.214367
vn -0.976753 0.000000 0.214367
vn -0.225043 0.000000 -0.974349
vn -0.225043 0.000000 -0.974349
vn -0.225043 0.000000 -0.974349
vn -0.526915 0.000000 -0.849918
vn -0.526915 0.000000 -0.849918
vn -0.526915 0.000000 -0.849918
vn -0.847951 0.000000 -0.530075
vn -0.847951 0.000000 -0.530075
vn -0.847951 0.000000 -0.530075
vn 0.533118 0.000000 -0.846041
vn 0.533118 0.000000 -0.846041
vn 0.533118 0.000000 -0.846041
vn 0.850923 0.000000 -0.525291
vn 0.850923 0.000000 -0.525291
vn 0.850923 0.000000 -0.525291
vn 0.974705 0.000000 0.223496
vn 0.974705 0.000000 0.223496
vn 0.974705 0.000000 0.223496
vn -0.974245 0.000000 -0.225490
vn -0.974245 0.000000 -0.225490
vn -0.974245 0.000000 -0.225490
vn 0.217929 0.000000 -0.975965
vn 0.217929 0.000000 -0.975965
vn 0.217929 0.000000 -0.975965
vn -0.221663 0.000000 0.975123
vn -0.221663 0.000000 0.975123
vn -0.221663 0.000000 0.975123
s 1
g Piso_2
usemtl lambert12SG
f 1/1/1 16/16/2 4/3/3
f 10/10/4 4/3/3 6/5/5
f 4/3/3 11/11/6 7/7/7
f 4/3/3 17/17/8 8/9/9
f 4/3/3 20/20/10 1/1/1
f 22/22/11 4/3/3 23/23/12
f 4/3/3 19/19/13 18/18/14
f 4/3/3 24/24/15 5/6/16
f 12/12/17 4/3/3 10/10/4
f 4/3/3 13/13/18 11/11/6
f 3/4/19 4/3/3 12/12/17
f 4/3/3 5/6/16 13/13/18
f 4/3/3 14/14/20 2/2/21
f 15/15/22 4/3/3 9/8/23
f 4/3/3 16/16/2 14/14/20
f 17/17/8 4/3/3 15/15/22
f 4/3/3 7/7/7 19/19/13
f 4/3/3 18/18/14 9/8/23
f 3/4/19 21/21/24 4/3/3
f 4/3/3 21/21/24 20/20/10
f 23/23/12 4/3/3 8/9/9
f 6/5/5 4/3/3 22/22/11
f 2/2/21 25/25/25 4/3/3
f 4/3/3 25/25/25 24/24/15
s off
f 12/12/26 10/10/27 27/26/28 26/27/29
f 11/11/30 13/13/31 28/28/32 29/29/33
f 14/14/34 16/16/35 30/30/36 31/31/37
f 17/17/38 15/15/39 33/32/40 32/33/41
f 18/18/42 19/19/43 35/34/44 34/35/45
f 20/20/46 21/21/47 37/36/48 36/37/49
f 22/22/50 23/23/51 39/38/52 38/39/53
f 24/24/54 25/25/55 41/40/56 40/41/57
f 16/16/58 1/1/59 42/42/60 43/43/61
f 3/4/62 12/12/63 45/80/64 44/45/65
f 13/13/66 5/6/67 46/46/68 47/47/69
f 8/9/70 17/17/71 49/78/72 48/49/73
f 1/1/74 20/20/75 50/77/76 42/42/77
f 6/5/78 22/22/79 52/76/80 51/52/81
f 9/8/82 18/18/83 54/75/84 53/54/85
f 5/6/86 24/24/87 55/74/88 46/46/89
f 10/10/90 6/5/91 51/52/92 56/56/93
f 7/7/94 11/11/95 57/72/96 58/58/97
f 2/2/98 14/14/99 59/71/100 60/60/101
f 15/15/102 9/8/103 53/54/104 61/61/105
f 19/19/106 7/7/107 58/58/108 62/62/109
f 21/21/110 3/4/111 44/45/112 63/63/113
f 23/23/114 8/9/115 48/49/116 64/64/117
f 25/25/118 2/2/119 60/60/120 65/65/121
f 16/16/122 43/81/123 30/30/124
f 45/44/125 12/12/126 26/27/127
f 13/13/128 47/79/129 28/28/130
f 49/48/131 17/17/132 32/33/133
f 50/50/134 20/20/135 36/37/136
f 52/51/137 22/22/138 38/39/139
f 54/53/140 18/18/141 34/35/142
f 55/55/143 24/24/144 40/41/145
f 10/10/146 56/73/147 27/26/148
f 57/57/149 11/11/150 29/29/151
f 59/59/152 14/14/153 31/31/154
f 15/15/155 61/70/156 33/32/157
f 19/19/158 62/69/159 35/34/160
f 21/21/161 63/68/162 37/36/163
f 23/23/164 64/67/165 39/38/166
f 25/25/167 65/66/168 41/40/169
