# This file uses centimeters as units for non-parametric coordinates.

mtllib Boss_Piso1.mtl
g default
v -93.411478 0.029575 89.161073
v -0.185341 0.029575 128.148229
v 93.086481 0.029575 89.694160
v -131.392842 0.029575 -3.986921
v 131.392850 0.029575 -2.736365
v -93.207596 0.029575 -96.634272
v 92.310690 -0.029592 -96.708097
v -0.866995 -0.029592 -135.504283
v -0.001198 0.000062 -3.677577
vt 0.170881 0.145345
vt 0.522060 0.015298
vt 0.861519 0.172003
vt 0.015946 0.484418
vt 0.989168 0.520131
vt 0.143113 0.833331
vt 0.830030 0.862085
vt 0.479060 0.991433
vt 0.502504 0.503444
vt 0.170881 0.145345
vt 0.502504 0.503444
vt 0.502504 0.503444
vt 0.502504 0.503444
vt 0.502504 0.503444
vt 0.502504 0.503444
vt 0.502504 0.503444
vt 0.502504 0.503444
vt 0.015946 0.484418
vt 0.143113 0.833331
vt 0.479060 0.991433
vt 0.830030 0.862085
vt 0.989168 0.520131
vt 0.861519 0.172003
vt 0.522060 0.015298
vn -0.000092 1.000000 -0.000224
vn -0.000092 1.000000 -0.000224
vn -0.000092 1.000000 -0.000224
vn -0.000224 1.000000 -0.000093
vn -0.000224 1.000000 -0.000093
vn -0.000224 1.000000 -0.000093
vn -0.000221 1.000000 -0.000538
vn -0.000221 1.000000 -0.000538
vn -0.000221 1.000000 -0.000538
vn 0.000094 1.000000 -0.000226
vn 0.000094 1.000000 -0.000226
vn 0.000094 1.000000 -0.000226
vn 0.000545 1.000000 -0.000229
vn 0.000545 1.000000 -0.000229
vn 0.000545 1.000000 -0.000229
vn 0.000224 1.000000 0.000092
vn 0.000224 1.000000 0.000092
vn 0.000224 1.000000 0.000092
vn 0.000225 1.000000 -0.000092
vn 0.000225 1.000000 -0.000092
vn 0.000225 1.000000 -0.000092
vn 0.000094 1.000000 -0.000224
vn 0.000094 1.000000 -0.000224
vn 0.000094 1.000000 -0.000224
s off
g Nivel_Boss_Piso
usemtl lambert16SG
f 2/24/1 3/3/2 9/16/3
f 3/23/4 5/5/5 9/15/6
f 5/22/7 7/7/8 9/14/9
f 7/21/10 8/8/11 9/13/12
f 8/20/13 6/6/14 9/12/15
f 6/19/16 4/4/17 9/11/18
f 4/18/19 1/1/20 9/9/21
f 1/10/22 2/2/23 9/17/24
