# This file uses centimeters as units for non-parametric coordinates.

mtllib MachineTank_0.mtl
g default
v 0.595739 0.920834 -1.822204
v 0.151228 0.920834 -1.864084
v 0.146592 1.409737 -1.805235
v 0.577048 1.409737 -1.764680
v 0.520032 -0.510713 -1.590384
v 1.547121 -0.056969 -1.123589
v 1.354120 -0.493874 -0.984013
v -0.126774 1.898640 -1.671395
v -0.137378 1.409737 -1.805235
v -0.525081 1.898640 -1.633100
v 1.180643 -0.669888 -0.002915
v 0.004607 -0.709723 1.178353
v -0.358808 -0.710177 1.115604
v 0.596896 0.431934 -1.825765
v -1.709500 1.898640 -0.002887
v -1.847852 1.409737 -0.002887
v -1.382135 1.898640 -1.010413
v -1.175820 2.173597 -0.860516
v -0.446276 2.173597 -1.390562
v -0.464833 -0.645363 1.440866
v 1.522121 -0.645363 -0.002741
v 0.954972 -0.673145 -0.694198
v 1.231673 -0.626960 -0.894939
v 0.368022 -0.709269 1.115604
v -1.542996 0.920834 1.121513
v -1.908335 0.920834 -0.002887
v -1.546025 0.431934 1.123714
v -1.454481 2.173597 -0.002887
v 0.135987 1.898640 -1.671395
v 0.954971 -0.673145 0.688369
v 0.534295 1.898640 -1.633100
v -0.107227 2.173597 -1.428530
v -0.112119 -0.650279 1.474096
v -0.511586 -0.510713 1.584610
v -1.537907 -0.056969 1.117815
v -0.584581 -0.056969 1.810446
v -0.587682 0.431934 1.819989
v 0.593795 -0.056969 -1.816220
v 1.555240 0.431934 -1.129488
v -0.123715 -0.510713 1.621153
v -0.332688 2.321933 -1.040974
v 0.116441 2.173597 -1.428530
v 0.120565 -0.650279 1.474096
v -0.079054 2.321933 -1.070741
v 0.455490 2.173597 -1.390562
v -1.382135 1.898640 1.004641
v -1.494064 1.409737 1.085961
v -0.243122 2.345455 -0.772742
v 0.109142 2.321933 -1.062915
v 0.473279 -0.645363 1.440866
v -0.878443 2.321933 -0.644460
v 0.132161 -0.510713 1.621153
v 1.503278 1.409737 -1.091734
v -0.057092 2.345455 -0.794569
v -1.086903 2.321933 -0.002887
v 1.552211 0.920834 -1.127286
v -0.141531 -0.056969 1.852188
v 0.341902 2.321933 -1.040974
v -0.586525 0.920834 1.816430
v 0.520032 -0.510713 1.584610
v 0.252336 2.345455 -0.772743
v 0.150745 -0.056969 1.852188
v -0.142301 0.431934 1.861952
v 1.231672 -0.626960 0.889458
v -0.646638 2.345455 -0.480450
v 1.962962 0.920834 -0.002887
v -0.800376 2.345455 -0.007292
v 1.354120 -0.493874 0.978240
v 1.857065 1.409737 -0.002887
v 0.151514 0.431934 1.861952
v -0.567834 1.409737 1.758906
v -0.525081 1.898640 1.627325
v 0.593794 -0.056969 1.810446
v -0.142014 0.920834 1.858309
v 1.547120 -0.056969 1.117815
v 0.596895 0.431934 1.819989
v -1.175820 2.173597 0.854744
v -0.332688 2.321933 1.035201
v -0.243122 2.345455 0.758158
v 0.151227 0.920834 1.858309
v 0.595738 0.920834 1.816430
v -0.137378 1.409737 1.799461
v 1.555239 0.431934 1.123714
v -0.079054 2.321933 1.064970
v -0.057093 2.345455 0.779985
v 1.391349 1.898640 -1.010413
v -0.126774 1.898640 1.665620
v -0.446276 2.173597 1.384788
v -0.107227 2.173597 1.422756
v 0.146592 1.409737 1.799461
v -0.878443 2.321933 0.638687
v 1.552210 0.920834 1.121513
v 0.088267 2.321933 1.064967
v 0.066988 2.343021 0.801903
v 0.252336 2.345455 0.758158
v 0.116441 2.173597 1.422756
v -0.646639 2.345455 0.465865
v 0.341902 2.321933 1.035201
v 0.135987 1.898640 1.665620
v 0.534295 1.898640 1.627325
v 0.577048 1.409737 1.758906
v 1.503277 1.409737 1.085961
v 0.455490 2.173597 1.384788
v 1.185034 2.173597 -0.860517
v 1.391348 1.898640 1.004641
v 1.718714 1.898640 -0.002887
v 0.887657 2.321933 -0.644460
v 0.655853 2.345455 -0.480450
v 1.463694 2.173597 -0.002887
v 0.809590 2.345455 -0.007293
v 1.096116 2.321933 -0.002887
v 0.655852 2.345455 0.465865
v 0.887657 2.321933 0.638687
v 1.185033 2.173597 0.854744
v -1.346182 -0.510713 0.978241
v -1.885760 0.394333 -0.002887
v 0.473279 -0.645363 -1.446348
v -0.567834 1.409737 -1.764680
v -0.142014 0.920834 -1.864084
v 0.368022 -0.709269 -1.121434
v -0.946826 -0.710910 0.688368
v -1.223782 -0.645363 0.889458
v -1.839895 -0.057750 -0.002887
v 0.151515 0.431934 -1.867727
v -1.494064 1.409737 -1.091734
v -1.171430 -0.711191 -0.002915
v -0.142301 0.431934 -1.867727
v 0.004607 -0.709723 -1.182822
v -0.586525 0.920834 -1.822204
v 0.150745 -0.056969 -1.857963
v -0.358808 -0.710177 -1.121434
v -1.661076 -0.516275 -0.002887
v -1.542996 0.920834 -1.127285
v 0.120565 -0.650279 -1.479579
v 0.132161 -0.510713 -1.626928
v -0.946826 -0.710910 -0.694198
v -0.587682 0.431934 -1.825765
v -1.546026 0.431934 -1.129487
v -0.141531 -0.056969 -1.857962
v -1.513674 -0.645363 -0.002740
v -0.112119 -0.650279 -1.479579
v -0.123715 -0.510713 -1.626927
v -0.464833 -0.645363 -1.446347
v -0.511586 -0.510713 -1.590384
v -0.584581 -0.056969 -1.816220
v -1.537907 -0.056969 -1.123589
v -1.223782 -0.645363 -0.894937
v -1.346182 -0.510713 -0.984013
v 0.610146 -0.725488 -0.002663
v 0.004607 -0.709723 0.606033
v -0.181570 -0.704857 0.573007
v 0.493965 -0.705311 -0.358369
v 0.190783 -0.714589 0.573007
v 0.493964 -0.705314 0.353044
v 0.191027 -0.714589 -0.578290
v -0.485269 -0.696968 0.353043
v -0.600932 -0.693958 -0.002662
v 0.004607 -0.709723 -0.610419
v -0.181813 -0.704857 -0.578290
v -0.485269 -0.696971 -0.358369
v 1.952406 0.483049 -0.002803
v 1.888016 -0.066075 -0.002706
v 1.631922 -0.502564 -0.002599
v 1.370615 -0.499737 0.915148
v 0.109142 2.331056 -0.808693
vt 0.848802 0.525742
vt 0.849794 0.537977
vt 0.820007 0.538601
vt 0.821154 0.525110
vt 0.875971 0.517061
vt 0.878995 0.529573
vt 0.850302 0.550459
vt 0.819019 0.551058
vt 0.791575 0.531264
vt 0.794677 0.518786
vt 0.822177 0.513430
vt 0.847319 0.513602
vt 0.872042 0.505025
vt 0.880957 0.542520
vt 0.850370 0.563542
vt 0.817877 0.564086
vt 0.788956 0.544062
vt 0.765101 0.518876
vt 0.769846 0.505901
vt 0.798030 0.506509
vt 0.823483 0.500982
vt 0.845196 0.500992
vt 0.866375 0.492701
vt 0.882070 0.556108
vt 0.850001 0.573100
vt 0.816798 0.573539
vt 0.786318 0.557725
vt 0.760661 0.532250
vt 0.775654 0.492947
vt 0.802426 0.493613
vt 0.824083 0.496168
vt 0.844271 0.495992
vt 0.784448 0.567359
vt 0.756885 0.545717
vt 0.783202 0.480084
vt 0.804585 0.488839
vt 0.712489 0.490935
vt 0.707174 0.504248
vt 0.679113 0.490638
vt 0.684781 0.476551
vt 0.739496 0.505127
vt 0.734005 0.518569
vt 0.702309 0.518307
vt 0.675053 0.505566
vt 0.935336 0.500103
vt 0.940237 0.519101
vt 0.690454 0.464581
vt 0.719027 0.478138
vt 0.729282 0.532421
vt 0.745609 0.491977
vt 0.699040 0.528591
vt 0.673296 0.516688
vt 0.941163 0.538575
vt 0.662393 0.446348
vt 0.907194 0.515509
vt 0.910573 0.530311
vt 0.699423 0.450408
vt 0.726522 0.465876
vt 0.752785 0.479057
vt 0.938790 0.552124
vt 0.912086 0.545765
vt 0.673203 0.432057
vt 0.901667 0.501410
vt 0.734756 0.453509
vt 0.709523 0.439184
vt 0.761305 0.466170
vt 0.686863 0.420531
vt 0.688446 0.421641
vt 0.893913 0.488497
vt 0.713305 0.435344
vt 0.738248 0.448802
vt 0.883330 0.476898
vt 0.888119 0.450231
vt 0.846298 0.428793
vt 0.819004 0.429463
vt 0.872213 0.446609
vt 0.840005 0.444064
vt 0.825975 0.444336
vt 0.796523 0.445595
vt 0.764684 0.461076
vt 0.878558 0.472744
vt 0.869516 0.466684
vt 0.850820 0.450839
vt 0.812101 0.460573
vt 0.812098 0.455955
vt 0.815045 0.451365
vt 0.788405 0.458508
vt 0.775576 0.464923
vt 0.872969 0.478784
vt 0.864812 0.474696
vt 0.852380 0.460581
vt 0.794284 0.467963
vt 0.780956 0.468409
vt 0.771062 0.470245
vt 0.877007 0.483186
vt 0.869270 0.482626
vt 0.850714 0.465042
vt 0.786810 0.475198
vt 0.808937 0.480958
vt 0.818267 0.468803
vt 0.776411 0.473817
vt 0.872801 0.487128
vt 0.858302 0.480602
vt 0.863621 0.488104
vt 0.847540 0.469173
vt 0.825179 0.487448
vt 0.827890 0.474185
vt 0.842333 0.487657
vt 0.838437 0.473929
vt 0.743353 0.551547
vt 0.754434 0.556192
vt 0.753207 0.566897
vt 0.688540 0.571156
vt 0.746179 0.541454
vt 0.668191 0.588519
vt 0.678548 0.572451
vt 0.681150 0.567590
vt 0.690344 0.565899
vt 0.736029 0.548194
vt 0.739282 0.538102
vt 0.816397 0.583622
vt 0.666159 0.580357
vt 0.636335 0.555811
vt 0.637718 0.550441
vt 0.683343 0.563179
vt 0.692257 0.559267
vt 0.725647 0.542226
vt 0.850205 0.583337
vt 0.651471 0.579456
vt 0.640078 0.570099
vt 0.627726 0.555301
vt 0.894250 0.574351
vt 0.683892 0.558852
vt 0.687232 0.540061
vt 0.881972 0.566180
vt 0.893674 0.563447
vt 0.631398 0.543354
vt 0.638430 0.546768
vt 0.680208 0.544684
vt 0.668863 0.535438
vt 0.672074 0.527981
vt 0.893432 0.552906
vt 0.901245 0.560945
vt 0.641609 0.542119
vt 0.912825 0.568460
vt 0.934832 0.565286
vt 0.900879 0.550269
vt 0.912329 0.557038
vt 0.653952 0.534115
vt 0.749044 0.510510
vt 0.743964 0.524050
vt 0.754898 0.497108
vt 0.755386 0.513908
vt 0.750480 0.527486
vt 0.762038 0.483828
vt 0.760801 0.500548
vt 0.767594 0.487199
vt 0.880465 0.499321
vt 0.885984 0.511840
vt 0.885732 0.495239
vt 0.892402 0.507958
vt 0.889736 0.524875
vt 0.896689 0.521384
vt 0.892175 0.538489
vt 0.899457 0.535446
vt 0.629614 0.547978
vt 0.901901 0.572148
vt 0.703543 0.412600
vt 0.769760 0.452463
vt 0.743955 0.440862
vt 0.647769 0.512169
vt 0.646702 0.498591
vt 0.651412 0.525356
vt 0.634920 0.536659
vt 0.696091 0.539322
vt 0.721371 0.552943
vt 0.881705 0.577871
vt 0.632815 0.574635
vt 0.648680 0.480014
vt 0.653776 0.462400
vt 0.926587 0.482074
vt 0.648266 0.587315
vt 0.914220 0.465677
vt 0.896600 0.453424
vt 0.692876 0.417095
vt 0.732020 0.558228
vt 0.783234 0.577591
vt 0.740772 0.562113
vt 0.684991 0.577809
vt 0.720467 0.428218
vn 0.464215 0.063451 -0.883447
vn 0.056612 0.063393 -0.996382
vn 0.055950 0.191778 -0.979842
vn 0.456548 0.191734 -0.868793
vn 0.788089 -0.250940 -0.562090
vn 0.688092 -0.536315 -0.488770
vn 0.397007 -0.531756 -0.748078
vn 0.451733 -0.234390 -0.860813
vn -0.422482 0.421769 -0.802259
vn -0.053173 0.430990 -0.900789
vn -0.055950 0.191778 -0.979842
vn -0.456549 0.191734 -0.868793
vn -0.731987 0.425866 -0.531820
vn -0.494295 0.791645 -0.359126
vn -0.288460 0.788787 -0.542776
vn 0.522707 -0.851702 0.037168
vn 0.088217 -0.996101 -0.000013
vn 0.091473 -0.994287 -0.055015
vn 0.354477 -0.901399 -0.248648
vn -0.036526 0.803236 -0.594540
vn -0.814641 -0.022179 0.579542
vn -0.810969 0.057008 0.582305
vn -0.998749 0.049996 0.000000
vn -0.999270 -0.038194 0.000000
vn -0.904786 0.425866 0.000000
vn -0.610981 0.791645 -0.000000
vn 0.422482 0.421769 -0.802259
vn 0.053173 0.430990 -0.900789
vn -0.049898 -0.995114 0.085200
vn -0.003701 -0.996576 0.082599
vn -0.033656 -0.908450 0.416636
vn -0.205606 -0.898522 0.387795
vn -0.792116 -0.233640 0.563884
vn -0.451524 -0.232576 0.861414
vn -0.465381 -0.006313 0.885088
vn 0.465382 -0.006314 -0.885088
vn 0.805417 -0.024214 -0.592213
vn -0.048569 -0.531086 0.845925
vn -0.397035 -0.525440 0.752513
vn -0.143138 0.953378 -0.265672
vn -0.011129 0.959844 -0.280315
vn 0.034166 -0.908699 0.416052
vn 0.067750 -0.994817 0.075827
vn 0.212797 -0.904687 0.369134
vn 0.288895 0.788382 -0.543134
vn 0.037922 0.801862 -0.596305
vn -0.731987 0.425866 0.531820
vn -0.980947 0.194277 0.000000
vn -0.793603 0.194277 0.576586
vn -0.242262 0.954125 -0.175936
vn -0.013220 0.999613 -0.024476
vn 0.002175 0.999860 -0.016603
vn 0.789209 0.205476 -0.578730
vn 0.798064 0.072540 -0.598191
vn 0.048538 -0.531142 0.845891
vn 0.397070 -0.531562 0.748183
vn -0.298782 0.954321 0.000087
vn 0.142383 0.953211 -0.266677
vn 0.020026 0.960135 -0.278818
vn -0.464215 0.063450 0.883447
vn -0.055196 -0.239305 0.969374
vn -0.056687 -0.006264 0.998372
vn -0.051034 0.998001 -0.037289
vn -0.028660 0.999589 -0.000076
vn 0.976079 0.217415 0.000000
vn 0.996689 0.081311 -0.000020
vn -0.056611 0.063392 0.996382
vn 0.287979 -0.925313 0.246705
vn 0.091458 -0.994289 0.055000
vn 0.056687 -0.006264 0.998372
vn 0.055215 -0.239368 0.969358
vn 0.451733 -0.234389 0.860813
vn 0.465381 -0.006313 0.885088
vn -0.456548 0.191734 0.868794
vn -0.494294 0.791645 0.359126
vn 0.464215 0.063450 0.883447
vn 0.056611 0.063392 0.996382
vn -0.422482 0.421769 0.802259
vn -0.055949 0.191778 0.979842
vn -0.053173 0.430990 0.900789
vn -0.011866 0.999689 0.021915
vn -0.142156 0.954012 0.263920
vn -0.019162 0.958858 0.283240
vn 0.000054 0.999920 0.012626
vn 0.731988 0.425866 -0.531820
vn -0.288460 0.788787 0.542777
vn -0.038275 0.801177 0.597202
vn -0.241059 0.954559 0.175237
vn 0.640699 -0.532840 0.552799
vn 0.017575 0.999212 0.035581
vn 0.006543 0.999065 0.042738
vn 0.019477 0.958541 0.284288
vn 0.142358 0.953875 0.264305
vn 0.798056 0.072557 0.598200
vn 0.789209 0.205476 0.578731
vn -0.021483 0.999648 0.015556
vn 0.038276 0.801177 0.597202
vn 0.288460 0.788787 0.542777
vn 0.422481 0.421770 0.802259
vn 0.053173 0.430990 0.900789
vn 0.055950 0.191778 0.979842
vn 0.456547 0.191734 0.868794
vn 0.494294 0.791645 -0.359126
vn 0.731987 0.425866 0.531820
vn 0.904786 0.425866 0.000000
vn 0.774213 -0.220270 0.593360
vn 0.242262 0.954126 -0.175937
vn 0.018432 0.999739 -0.013467
vn 0.008802 0.999758 -0.020169
vn 0.610981 0.791645 0.000000
vn 0.025719 0.999669 -0.000170
vn 0.298782 0.954321 0.000087
vn 0.805389 -0.024180 0.592254
vn 0.040098 0.998774 0.029025
vn 0.241059 0.954559 0.175237
vn 0.494294 0.791645 0.359126
vn -0.699283 -0.514040 0.496756
vn 0.212694 -0.904762 -0.369009
vn -0.353698 -0.898859 0.258747
vn -0.972827 -0.231535 0.000000
vn 0.067709 -0.994814 -0.075905
vn -0.081831 -0.994949 0.058143
vn -0.793603 0.194277 -0.576586
vn 0.056687 -0.006264 -0.998372
vn -0.056612 0.063393 -0.996382
vn -0.464216 0.063451 -0.883446
vn -0.869596 -0.493764 -0.000026
vn -0.810970 0.057009 -0.582304
vn -0.814641 -0.022179 -0.579542
vn -0.003720 -0.996596 -0.082357
vn 0.033960 -0.908881 -0.415671
vn 0.048530 -0.531408 -0.845725
vn -0.465382 -0.006313 -0.885088
vn 0.055215 -0.239369 -0.969357
vn -0.436491 -0.899709 0.000057
vn -0.098699 -0.995117 -0.000008
vn -0.033449 -0.908632 -0.416257
vn -0.049868 -0.995107 -0.085290
vn -0.205507 -0.898600 -0.387666
vn -0.048561 -0.531352 -0.845758
vn -0.396971 -0.525633 -0.752412
vn -0.056687 -0.006264 -0.998372
vn -0.055196 -0.239306 -0.969374
vn -0.451525 -0.232577 -0.861413
vn -0.792116 -0.233640 -0.563883
vn -0.353715 -0.898881 -0.258648
vn -0.081842 -0.994947 -0.058167
vn -0.699194 -0.514174 -0.496742
vn -0.010979 -0.999909 -0.007838
vn -0.007747 -0.999964 -0.003524
vn 0.041699 -0.999111 0.006196
vn 0.051102 -0.998381 -0.024986
vn 0.018539 -0.999824 -0.002887
vn 0.035376 -0.999272 0.014279
vn 0.030261 -0.999542 0.000730
vn 0.005410 -0.999925 -0.011039
vn 0.013427 -0.999910 -0.000000
vn -0.000092 -0.999904 -0.013844
vn -0.005572 -0.999968 0.005672
vn 0.000914 -0.999955 0.009461
vn 0.999204 -0.039895 0.000001
vn 0.969292 -0.244257 -0.028482
vn 0.805567 -0.536338 0.251800
vn 0.844596 -0.534610 -0.029149
vn 0.001116 0.999795 -0.020197
s 1
g MachineTank_0 polySurface24 polySurface9
usemtl lambert4SG
f 1/41/1 2/150/2 3/151/3 4/42/4
f 6/58/5 7/64/6 5/66/7 38/59/8
f 10/34/9 8/114/10 9/154/11 118/28/12
f 10/34/9 17/27/13 18/33/14 19/111/15
f 21/70/16 11/190/17 22/170/18 23/71/19
f 8/114/10 10/34/9 19/111/15 32/110/20
f 27/1/21 25/2/22 26/3/23 116/4/24
f 17/27/13 15/16/25 28/26/26 18/33/14
f 31/49/27 4/42/4 3/151/3 29/120/28
f 13/103/29 12/90/30 33/96/31 20/104/32
f 35/12/33 36/13/34 37/5/35 27/1/21
f 6/58/5 38/59/8 14/50/36 39/48/37
f 40/102/38 34/23/39 20/104/32 33/96/31
f 32/110/20 19/111/15 41/112/40 44/188/41
f 33/96/31 12/90/30 43/89/42
f 24/82/43 50/81/44 43/89/42 12/90/30
f 45/127/45 31/49/27 29/120/28 42/119/46
f 46/15/47 15/16/25 16/8/48 47/7/49
f 26/3/23 25/2/22 47/7/49 16/8/48
f 41/112/40 19/111/15 18/33/14 51/187/50
f 44/113/41 41/189/40 48/116/51 54/117/52
f 1/41/1 4/42/4 53/38/53 56/37/54
f 52/95/55 43/89/42 50/81/44 60/72/56
f 51/187/50 18/33/14 28/26/26 55/121/57
f 58/176/58 45/127/45 42/119/46 49/186/59
f 27/1/21 37/5/35 59/6/60 25/2/22
f 39/48/37 14/50/36 1/41/1 56/37/54
f 36/13/34 57/158/61 63/159/62 37/5/35
f 48/116/51 41/189/40 51/115/50 65/122/63
f 65/122/63 51/115/50 55/182/57 67/129/64
f 56/37/54 53/38/53 69/39/65 66/40/66
f 59/6/60 37/5/35 63/159/62 74/162/67
f 34/23/39 40/102/38 57/158/61 36/13/34
f 64/185/68 30/168/69 11/190/17 21/70/16
f 70/161/70 62/160/71 73/69/72 76/63/73
f 25/2/22 59/6/60 71/14/74 47/7/49
f 50/81/44 24/82/43 30/76/69 64/73/68
f 15/16/25 46/15/47 77/25/75 28/26/26
f 70/161/70 76/63/73 81/55/76 80/163/77
f 72/24/78 71/14/74 82/164/79 87/142/80
f 79/123/81 78/131/82 84/166/83 85/124/84
f 47/7/49 71/14/74 72/24/78 46/15/47
f 53/38/53 4/42/4 31/49/27 86/43/85
f 88/135/86 72/24/78 87/142/80 89/136/87
f 78/177/82 88/135/86 89/136/87 84/132/83
f 55/121/57 28/26/26 77/25/75 91/128/88
f 60/72/56 50/81/44 64/73/68 68/184/89
f 60/72/56 73/69/72 62/160/71 52/95/55
f 95/144/90 94/138/91 93/137/92 98/174/93
f 92/180/94 66/40/66 69/39/65 102/179/95
f 67/129/64 55/182/57 91/178/88 97/130/96
f 98/145/93 93/167/92 96/143/97 103/148/98
f 100/61/99 99/147/100 90/165/101 101/56/102
f 103/148/98 96/143/97 99/147/100 100/61/99
f 46/15/47 72/24/78 88/135/86 77/25/75
f 86/43/85 31/49/27 45/127/45 104/51/103
f 105/172/104 102/179/95 69/39/65 106/44/105
f 60/72/56 68/184/89 75/183/106 73/69/72
f 91/128/88 77/25/75 88/135/86 78/177/82
f 107/175/107 104/51/103 45/127/45 58/176/58
f 97/130/96 91/178/88 78/131/82 79/123/81
f 108/139/108 107/134/107 58/126/58 61/133/109
f 69/39/65 53/38/53 86/43/85 106/44/105
f 59/6/60 74/162/67 82/164/79 71/14/74
f 106/44/105 86/43/85 104/51/103 109/52/110
f 110/140/111 111/141/112 107/134/107 108/139/108
f 111/141/112 109/52/110 104/51/103 107/175/107
f 73/69/72 75/183/106 83/181/113 76/63/73
f 81/55/76 101/56/102 90/165/101 80/163/77
f 76/63/73 83/181/113 92/45/94 81/55/76
f 112/149/114 113/173/115 111/141/112 110/140/111
f 81/55/76 92/45/94 102/46/95 101/56/102
f 95/144/90 98/174/93 113/173/115 112/149/114
f 113/173/115 114/171/116 109/52/110 111/141/112
f 98/145/93 103/148/98 114/60/116 113/146/115
f 105/172/104 106/44/105 109/52/110 114/171/116
f 101/56/102 102/46/95 105/53/104 100/61/99
f 100/61/99 105/53/104 114/60/116 103/148/98
f 115/22/117 34/23/39 36/13/34 35/12/33
f 7/64/6 23/71/19 117/80/118 5/66/7
f 115/22/117 122/32/119 20/104/32 34/23/39
f 123/11/120 35/12/33 27/1/21 116/4/24
f 23/71/19 22/170/18 120/169/121 117/80/118
f 122/32/119 121/108/122 13/103/29 20/104/32
f 125/17/123 16/8/48 15/16/25 17/27/13
f 14/50/36 124/152/124 2/150/2 1/41/1
f 10/34/9 118/28/12 125/17/123 17/27/13
f 9/154/11 119/153/125 129/18/126 118/28/12
f 132/21/127 115/22/117 35/12/33 123/11/120
f 116/4/24 26/3/23 133/9/128 138/10/129
f 120/169/121 128/87/130 134/88/131 117/80/118
f 135/94/132 5/66/7 117/80/118 134/88/131
f 138/10/129 133/9/128 129/18/126 137/19/133
f 38/59/8 130/155/134 124/152/124 14/50/36
f 140/31/135 126/106/136 121/108/122 122/32/119
f 132/21/127 140/31/135 122/32/119 115/22/117
f 133/9/128 26/3/23 16/8/48 125/17/123
f 134/88/131 128/87/130 141/93/137
f 131/92/138 143/98/139 141/93/137 128/87/130
f 129/18/126 133/9/128 125/17/123 118/28/12
f 142/101/140 141/93/137 143/98/139 144/35/141
f 119/153/125 127/156/142 137/19/133 129/18/126
f 5/66/7 135/94/132 130/155/134 38/59/8
f 127/156/142 139/157/143 145/29/144 137/19/133
f 146/20/145 123/11/120 116/4/24 138/10/129
f 139/157/143 142/101/140 144/35/141 145/29/144
f 145/29/144 146/20/145 138/10/129 137/19/133
f 147/36/146 136/99/147 126/106/136 140/31/135
f 143/98/139 131/92/138 136/99/147 147/36/146
f 148/30/148 132/21/127 123/11/120 146/20/145
f 148/30/148 147/36/146 140/31/135 132/21/127
f 144/35/141 148/30/148 146/20/145 145/29/144
f 144/35/141 143/98/139 147/36/146 148/30/148
f 12/90/30 13/103/29 151/105/149 150/97/150
f 22/75/18 11/74/17 149/77/151 152/78/152
f 24/82/43 12/90/30 150/97/150 153/91/153
f 11/74/17 30/76/69 154/83/154 149/77/151
f 30/76/69 24/82/43 153/91/153 154/83/154
f 120/79/121 22/75/18 152/78/152 155/86/155
f 13/103/29 121/108/122 156/109/156 151/105/149
f 121/108/122 126/106/136 157/107/157 156/109/156
f 128/87/130 120/79/121 155/86/155 158/85/158
f 131/92/138 128/87/130 158/85/158 159/84/159
f 126/106/136 136/99/147 160/100/160 157/107/157
f 136/99/147 131/92/138 159/84/159 160/100/160
f 85/124/84 84/166/83 93/137/92 94/138/91
f 84/132/83 89/136/87 96/143/97 93/167/92
f 161/47/161 39/48/37 56/37/54 66/40/66
f 87/142/80 99/147/100 96/143/97 89/136/87
f 82/164/79 90/165/101 99/147/100 87/142/80
f 74/162/67 80/163/77 90/165/101 82/164/79
f 63/159/62 70/161/70 80/163/77 74/162/67
f 63/159/62 57/158/61 62/160/71 70/161/70
f 40/102/38 52/95/55 62/160/71 57/158/61
f 52/95/55 40/102/38 33/96/31 43/89/42
f 83/54/113 161/47/161 66/40/66 92/180/94
f 75/62/106 162/57/162 161/47/161 83/54/113
f 162/57/162 6/58/5 39/48/37 161/47/161
f 75/62/106 68/67/89 164/68/163 162/57/162
f 163/65/164 162/57/162 164/68/163 21/70/16
f 7/64/6 6/58/5 162/57/162 163/65/164
f 164/68/163 68/67/89 64/185/68 21/70/16
f 7/64/6 163/65/164 21/70/16 23/71/19
f 32/110/20 44/188/41 49/186/59 42/119/46
f 29/120/28 8/114/10 32/110/20 42/119/46
f 142/101/140 135/94/132 134/88/131 141/93/137
f 139/157/143 130/155/134 135/94/132 142/101/140
f 127/156/142 124/152/124 130/155/134 139/157/143
f 119/153/125 2/150/2 124/152/124 127/156/142
f 3/151/3 2/150/2 119/153/125 9/154/11
f 3/151/3 9/154/11 8/114/10 29/120/28
f 151/105/149 156/109/156 157/107/157 160/100/160
f 151/105/149 160/100/160 159/84/159 150/97/150
f 153/91/153 150/97/150 159/84/159 154/83/154
f 154/83/154 159/84/159 149/77/151
f 152/78/152 149/77/151 159/84/159 158/85/158
f 158/85/158 155/86/155 152/78/152
f 49/118/59 44/113/41 54/117/52 165/125/165
f 58/126/58 49/118/59 165/125/165 61/133/109
f 65/122/63 67/129/64 48/116/51
f 48/116/51 67/129/64 97/130/96 79/123/81
f 54/117/52 48/116/51 79/123/81 85/124/84
f 165/125/165 54/117/52 85/124/84 61/133/109
f 108/139/108 61/133/109 85/124/84 110/140/111
f 85/124/84 94/138/91 110/140/111
f 110/140/111 94/138/91 95/144/90 112/149/114
