# This file uses centimeters as units for non-parametric coordinates.

mtllib Environment2_Piso.mtl
g default
v -32.882179 0.058889 52.800827
v 41.103844 0.077859 46.473583
v -59.677120 -0.159781 -15.276112
v 57.477127 0.043424 -20.334984
v -2.666953 0.159781 -60.309269
v 0.000000 0.000004 -0.000004
v -14.690568 0.063554 51.245090
v 22.780863 0.073162 48.040558
v -13.211306 0.064016 78.503113
v 24.826746 0.073664 75.435516
v -45.445843 -0.080009 -26.517605
v -17.508923 0.076586 -48.585377
v 12.792903 0.129871 -50.033993
v 42.160519 0.073885 -30.371159
v 45.397617 0.068252 28.389595
v 53.195595 0.052429 -2.721882
v -52.966877 -0.103174 2.505116
v -39.766972 0.002704 35.308907
v 68.647514 0.023729 33.550674
v 75.344078 0.007877 3.738018
v 25.514246 0.143226 -69.774689
v 54.738888 0.087241 -49.468319
v -75.818298 -0.105137 11.517164
v -62.216286 0.004403 43.920135
v -63.199657 -0.080009 -46.092426
v -33.591003 0.076586 -69.831955
vt 0.231014 0.270432
vt 0.667116 0.177197
vt 0.196319 0.708439
vt 0.878186 0.532308
vt 0.602697 0.867287
vt 0.512387 0.516161
vt 0.338242 0.247508
vt 0.559114 0.200287
vt 0.298999 0.088330
vt 0.522885 0.039331
vt 0.297762 0.748091
vt 0.496901 0.825932
vt 0.673511 0.781181
vt 0.807777 0.616789
vt 0.723455 0.273562
vt 0.822742 0.438627
vt 0.203724 0.594540
vt 0.222099 0.382975
vt 0.847978 0.203192
vt 0.938662 0.362725
vt 0.913483 0.704464
vt 0.781165 0.872302
vt 0.056668 0.582792
vt 0.078055 0.372825
vt 0.441729 0.976152
vt 0.230058 0.891636
vn 0.000159 0.999997 0.002647
vn 0.000160 0.999997 0.002636
vn 0.000179 0.999997 0.002641
vn -0.003394 0.999990 0.002799
vn -0.003394 0.999990 0.002799
vn -0.003394 0.999990 0.002799
vn -0.002062 0.999995 -0.002400
vn -0.002062 0.999995 -0.002399
vn -0.002063 0.999995 -0.002400
vn -0.000372 0.999999 -0.001347
vn -0.000372 0.999999 -0.001347
vn -0.000372 0.999999 -0.001347
vn -0.001024 0.999999 -0.000766
vn -0.001025 0.999999 -0.000763
vn -0.001024 0.999999 -0.000760
vn -0.000372 0.999999 -0.001347
vn -0.000372 0.999999 -0.001347
vn -0.000255 1.000000 -0.000001
vn -0.000255 1.000000 -0.000001
vn -0.000255 1.000000 -0.000001
vn -0.000255 1.000000 -0.000001
vn -0.003394 0.999990 0.002799
vn -0.003394 0.999990 0.002799
vn 0.000172 0.999996 0.002672
vn 0.000207 0.999996 0.002720
vn -0.001020 0.999999 -0.000773
vn -0.001022 0.999999 -0.000769
vn -0.002062 0.999995 -0.002401
vn -0.002062 0.999995 -0.002405
vn 0.001975 0.999998 -0.000050
vn 0.001975 0.999998 -0.000050
vn 0.001975 0.999998 -0.000050
vn 0.001975 0.999998 -0.000050
vn 0.000998 0.999999 0.001338
vn 0.000998 0.999999 0.001338
vn 0.000998 0.999999 0.001338
vn 0.000998 0.999999 0.001338
vn -0.001113 0.999995 -0.002846
vn -0.001113 0.999995 -0.002846
vn -0.001113 0.999995 -0.002846
vn -0.001113 0.999995 -0.002846
vn -0.003279 0.999991 0.002718
vn -0.003279 0.999991 0.002718
vn -0.003279 0.999991 0.002718
vn -0.003279 0.999991 0.002718
s 1
g Environment2_Piso
usemtl initialShadingGroup
f 6/6/1 13/13/2 5/5/3
s 2
f 6/6/4 11/11/5 3/3/6
s 3
f 6/6/7 18/18/8 1/1/9
s 4
f 6/6/10 8/8/11 2/2/12
s 5
f 6/6/13 16/16/14 4/4/15
s 4
f 1/1/16 7/7/17 6/6/10
f 6/6/10 7/7/17 8/8/11
s off
f 8/8/18 7/7/19 9/9/20 10/10/21
s 2
f 6/6/4 12/12/22 11/11/5
f 5/5/23 12/12/22 6/6/4
s 1
f 6/6/1 14/14/24 13/13/2
f 4/4/25 14/14/24 6/6/1
s 5
f 2/2/26 15/15/27 6/6/13
f 6/6/13 15/15/27 16/16/14
s 3
f 6/6/7 17/17/28 18/18/8
f 6/6/7 3/3/29 17/17/28
s off
f 16/16/30 15/15/31 19/19/32 20/20/33
f 13/13/34 14/14/35 22/21/36 21/22/37
f 18/18/38 17/17/39 23/23/40 24/24/41
f 11/11/42 12/12/43 26/25/44 25/26/45
