# This file uses centimeters as units for non-parametric coordinates.

mtllib MachineTank_2.mtl
g default
v -2.457344 0.413424 1.154650
v -2.588907 1.236856 1.154650
v -2.672322 0.413424 -0.000047
v -1.638004 -0.746685 1.289728
v 0.583541 -0.656446 -1.670997
v 0.874747 -0.673089 -1.687160
v 1.171614 -0.541472 -0.920688
v -2.647660 2.028731 -1.154702
v -2.713676 2.680828 -0.000047
v -2.486305 2.680828 -1.154702
v -0.217462 -0.716438 0.317532
v -0.115000 -0.729618 0.000239
v -2.941758 2.028731 -0.000047
v -1.078763 -0.812901 1.285100
v -1.536730 -0.813287 1.063366
v -0.877103 -0.813117 0.545960
v 0.823675 0.343755 -1.560996
v -0.493440 -0.722497 0.524522
v -1.163593 2.028731 -1.487420
v -1.165334 -0.746685 1.446410
v -0.552509 1.236856 -1.552373
v -1.163593 1.236856 -1.487420
v -0.552509 2.028731 -1.552373
v 0.711917 -0.683609 -0.000028
v 0.518441 -0.677027 -0.711139
v 0.842899 -0.643593 -0.858127
v -2.827198 1.236856 0.000002
v -2.647660 2.028731 1.154650
v -1.163593 2.680828 -1.487420
v 0.719615 -0.678955 -0.000016
v -0.254877 -0.714971 1.257825
v 0.919099 1.253795 -1.562742
v -2.215253 2.995901 -0.866677
v 0.518371 -0.677027 0.711102
v 1.430204 0.347269 -1.233615
v -1.281332 2.995901 -1.116404
v -0.512702 -0.695740 1.723073
v 1.587857 -0.484462 0.000316
v 0.826341 2.121931 -1.481512
v -2.310777 2.995901 -0.000031
v -0.552509 2.680828 -1.552373
v 0.842899 -0.643591 0.858569
v -1.633583 3.192653 -0.482642
v -0.552522 0.413424 1.552405
v 1.171613 -0.541472 0.921323
v 0.665201 2.679799 -1.313054
v -0.338326 2.670764 -1.501228
v -2.486305 2.680828 1.154650
v -1.163863 0.413424 1.487634
v 1.413081 1.278780 -0.992544
v -0.103813 2.987052 -1.293252
v -2.215253 2.995901 0.866646
v -0.298772 2.995901 -1.165155
v 0.583541 -0.656446 1.671002
v -1.161893 3.192653 -0.621715
v -1.773577 3.192653 -0.000010
v -0.650656 3.192653 -0.648864
v 1.240885 2.119765 -1.029285
v -1.163863 1.236856 1.487634
v -1.163863 2.028731 1.487634
v -1.633583 3.192653 0.482639
v 0.874747 -0.673089 1.687166
v 1.052402 2.483383 -1.236545
v 0.276691 2.996964 -1.133549
v -0.464057 3.198037 -0.568735
v 0.045836 3.005569 -1.021270
v -0.552534 1.236856 1.552405
v -1.281535 2.995901 1.116572
v 0.565541 2.992929 -0.955222
v 0.863943 2.855912 -1.008947
v -0.789060 3.192653 -0.000373
v -0.340024 3.199512 -0.479262
v 0.318199 3.006926 -0.860606
v 0.823675 0.343755 1.561004
v -0.710957 3.173248 -0.000705
v -0.710957 3.198119 0.000002
v -1.163863 2.680828 1.487634
v 1.430203 0.347269 1.233618
v -1.164134 3.192653 0.621823
v 0.312220 3.009305 -0.000237
v -0.473305 3.198198 0.563477
v -0.340724 3.199713 0.472656
v 0.864537 2.855252 0.000075
v 0.559743 2.995914 -0.000762
v -0.654991 3.192653 0.648897
v -0.552534 2.680828 1.552405
v 0.919099 1.253794 1.562750
v -1.291220 3.192653 -0.000912
v -0.306663 2.995901 1.165187
v 1.413080 1.278780 0.992547
v 0.826587 2.122354 1.472321
v 0.045657 3.005857 1.011803
v 0.317029 3.007266 0.848718
v 0.564272 2.993318 0.942023
v -0.112571 2.987052 1.293284
v 1.245329 2.120194 1.016445
v -0.338354 2.670764 1.501260
v 1.054299 2.483865 1.221331
v 0.665524 2.680335 1.300959
v 0.863116 2.856448 0.991351
v 0.276524 2.997297 1.123037
v -0.552534 2.028731 1.552405
v -2.170070 -0.602067 1.154650
v -0.217462 -0.716436 -0.317053
v -2.110673 -0.746685 1.116794
v -1.799986 -0.813672 0.841632
v -1.192142 -0.807963 0.353629
v -0.254807 -0.714971 -1.257886
v -1.163593 0.413424 -1.487420
v -0.552522 0.413424 -1.552373
v -2.297340 -0.602067 -0.000047
v -0.493241 -0.722497 -0.524002
v -2.588907 1.236856 -1.154702
v -1.308174 -0.805997 0.000249
v -1.600167 -0.809202 0.000115
v -2.034239 -0.813967 -0.000084
v -2.202260 -0.746685 0.000376
v -0.877325 -0.813117 -0.545441
v -1.600106 -0.809202 0.000002
v -1.192142 -0.807965 -0.353136
v -0.512675 -0.695740 -1.723040
v -1.165334 -0.746685 -1.445800
v -1.078763 -0.812901 -1.285214
v -2.457344 0.413424 -1.154702
v -1.536730 -0.813287 -1.063493
v -1.799985 -0.813672 -0.841771
v -2.110853 -0.746685 -1.116220
v -2.170070 -0.602067 -1.154702
v -1.638094 -0.746685 -1.289133
v 1.536038 0.629451 0.000224
v 0.996790 1.893791 0.000140
v 0.970965 2.047204 0.000129
v 0.906179 2.465526 0.000101
vt 0.622876 0.517051
vt 0.606259 0.518953
vt 0.605670 0.506178
vt 0.622323 0.504762
vt 0.623577 0.532990
vt 0.606974 0.535029
vt 0.605304 0.493996
vt 0.621789 0.493028
vt 0.639040 0.504681
vt 0.639601 0.517495
vt 0.607369 0.537437
vt 0.623674 0.535477
vt 0.640258 0.533667
vt 0.621327 0.482902
vt 0.605088 0.483736
vt 0.638297 0.492496
vt 0.640043 0.536115
vt 0.637572 0.482249
vt 0.603573 0.475367
vt 0.620985 0.475471
vt 0.633772 0.475528
vt 0.618278 0.418184
vt 0.649896 0.420827
vt 0.632883 0.422748
vt 0.618553 0.424170
vt 0.617994 0.411770
vt 0.633074 0.410490
vt 0.587484 0.424195
vt 0.594123 0.424403
vt 0.617893 0.409445
vt 0.632286 0.397229
vt 0.653915 0.425831
vt 0.603013 0.411834
vt 0.617033 0.390127
vt 0.634730 0.381453
vt 0.666900 0.425585
vt 0.602480 0.398562
vt 0.584050 0.429673
vt 0.616397 0.376182
vt 0.633711 0.362439
vt 0.679837 0.428625
vt 0.598627 0.383090
vt 0.571527 0.430265
vt 0.597908 0.364063
vt 0.558950 0.433446
vt 0.646446 0.583588
vt 0.647371 0.579251
vt 0.636012 0.580942
vt 0.625188 0.578391
vt 0.624939 0.591843
vt 0.634554 0.575899
vt 0.642721 0.565305
vt 0.625193 0.578254
vt 0.613751 0.585985
vt 0.614450 0.580783
vt 0.629761 0.564417
vt 0.632478 0.560571
vt 0.649498 0.562694
vt 0.625346 0.565610
vt 0.616058 0.575767
vt 0.603347 0.579666
vt 0.604326 0.583836
vt 0.632810 0.554543
vt 0.643523 0.552581
vt 0.646089 0.551587
vt 0.620692 0.564501
vt 0.607555 0.566149
vt 0.624081 0.548604
vt 0.629532 0.550120
vt 0.639884 0.545138
vt 0.643191 0.543688
vt 0.617326 0.560841
vt 0.600620 0.564311
vt 0.624021 0.544394
vt 0.624022 0.544396
vt 0.636290 0.541047
vt 0.616300 0.555227
vt 0.605404 0.554045
vt 0.618896 0.550481
vt 0.602723 0.553393
vt 0.623779 0.538100
vt 0.608194 0.546391
vt 0.604767 0.545261
vt 0.611503 0.542018
vt 0.635824 0.458207
vt 0.628442 0.465565
vt 0.628484 0.457093
vt 0.645984 0.476508
vt 0.642323 0.455946
vt 0.620605 0.467295
vt 0.620268 0.459887
vt 0.628312 0.447951
vt 0.636214 0.441846
vt 0.642776 0.446310
vt 0.612640 0.466312
vt 0.611780 0.457956
vt 0.619831 0.450784
vt 0.627511 0.444598
vt 0.635633 0.435451
vt 0.638307 0.438549
vt 0.642802 0.442833
vt 0.604540 0.459778
vt 0.611135 0.448877
vt 0.619758 0.449357
vt 0.626685 0.442299
vt 0.631232 0.431376
vt 0.638442 0.431890
vt 0.645295 0.426807
vt 0.596178 0.478999
vt 0.597826 0.458106
vt 0.602760 0.443648
vt 0.611704 0.445530
vt 0.638812 0.425951
vt 0.596537 0.448515
vt 0.602811 0.437057
vt 0.618809 0.429334
vt 0.618985 0.433143
vt 0.600391 0.440595
vt 0.596243 0.445113
vt 0.599715 0.433822
vt 0.612283 0.442996
vt 0.602597 0.431369
vt 0.598724 0.427943
vt 0.592522 0.429569
vt 0.619744 0.448996
vt 0.694070 0.432650
vt 0.693207 0.446524
vt 0.676154 0.447397
vt 0.694232 0.455129
vt 0.676512 0.455692
vt 0.663759 0.446520
vt 0.694594 0.461377
vt 0.663910 0.455333
vt 0.652065 0.446560
vt 0.694373 0.468832
vt 0.679592 0.474447
vt 0.667743 0.476447
vt 0.652047 0.455771
vt 0.696410 0.467292
vt 0.656323 0.478083
vt 0.545733 0.460731
vt 0.546025 0.452002
vt 0.563038 0.451829
vt 0.563494 0.460148
vt 0.544622 0.437796
vt 0.575785 0.460053
vt 0.575850 0.451326
vt 0.545794 0.466926
vt 0.544024 0.433814
vt 0.573720 0.481170
vt 0.561265 0.479352
vt 0.587474 0.450030
vt 0.587966 0.459163
vt 0.546334 0.474389
vt 0.585752 0.481689
vt 0.544232 0.472965
vt 0.604402 0.424085
vt 0.601239 0.418027
vt 0.605430 0.428892
vt 0.581482 0.420569
vt 0.606790 0.432545
vt 0.568775 0.419858
vt 0.556764 0.424144
vt 0.632257 0.427618
vt 0.635292 0.429791
vt 0.643074 0.421899
vt 0.635434 0.416460
vt 0.655988 0.416650
vt 0.608255 0.476703
vt 0.669225 0.415112
vt 0.681724 0.419250
vt 0.638306 0.473720
vt 0.694684 0.428666
vt 0.636490 0.586177
vn -0.968855 -0.247628 -0.000003
vn -0.728377 -0.174528 0.662577
vn -0.673878 -0.083664 0.734091
vn -0.990119 -0.140229 0.000008
vn 0.118189 -0.258752 -0.958686
vn 0.794622 -0.270223 -0.543650
vn 0.214174 -0.976745 -0.009949
vn 0.154867 -0.987862 -0.012066
vn -0.885357 0.464912 -0.000001
vn -0.595128 0.374142 -0.711225
vn -0.686208 0.046634 -0.725909
vn -0.997436 0.071568 -0.000005
vn 0.101524 -0.994406 -0.029132
vn 0.060541 -0.995053 0.078772
vn -0.039717 -0.995994 0.080112
vn 0.041145 -0.998465 -0.037086
vn -0.108011 -0.993151 0.044560
vn 0.167389 0.077522 -0.982838
vn 0.934005 -0.023668 -0.356476
vn -0.191097 0.005680 -0.981555
vn -0.171752 0.337124 -0.925662
vn -0.243875 -0.300599 0.922044
vn -0.263466 -0.223910 0.938323
vn -0.026549 0.017026 -0.999503
vn -0.193403 -0.009532 -0.981073
vn -0.004612 0.058881 -0.998254
vn 0.062210 -0.997886 -0.018827
vn 0.062496 -0.998045 -0.000011
vn 0.055978 -0.998373 0.010839
vn 0.070074 -0.996781 -0.038943
vn 0.208232 -0.978079 0.000002
vn -0.686325 0.046644 0.725798
vn 0.239172 -0.970977 0.000010
vn 0.090289 -0.995839 0.012396
vn 0.078886 -0.996289 0.034422
vn -0.381317 0.855341 -0.350699
vn -0.518976 0.854789 0.000000
vn 0.051689 -0.998183 0.030976
vn 0.062209 -0.997885 0.018833
vn -0.101385 0.839468 -0.533867
vn -0.595259 0.374162 0.711105
vn -0.068401 -0.106987 0.991905
vn 0.266161 0.055265 -0.962343
vn 0.954356 0.207801 -0.214533
vn -0.058587 0.458694 -0.886661
vn -0.007364 0.884736 -0.466034
vn 0.154858 -0.987863 0.012067
vn -0.152157 0.975086 -0.161415
vn -0.034448 0.974733 -0.220702
vn -0.223758 0.974645 0.000001
vn -0.063696 0.053085 0.996557
vn -0.228628 -0.011468 0.973446
vn 0.214170 -0.976746 0.009941
vn 0.127162 0.695126 -0.707552
vn 0.099281 0.282314 -0.954171
vn -0.381470 0.855300 0.350632
vn 0.118197 -0.258741 0.958688
vn 0.191859 0.341706 -0.920015
vn 0.189611 0.736941 -0.648819
vn 0.002698 0.970299 -0.241893
vn 0.247600 0.121513 -0.961212
vn 0.960226 0.241813 -0.139617
vn -0.193444 -0.009540 0.981065
vn -0.025408 0.018992 0.999497
vn -0.191138 0.005685 0.981547
vn -0.171952 0.336467 0.925863
vn -0.152280 0.975103 0.161201
vn 0.794551 -0.270136 0.543796
vn 0.898703 0.377898 -0.222544
vn 0.791003 0.596011 -0.138147
vn 0.089812 0.975388 -0.201378
vn 0.088902 0.975812 -0.199718
vn -0.101652 0.839305 0.534073
vn 0.303113 0.937677 -0.169957
vn -0.006585 0.999978 -0.000034
vn 0.008413 0.999964 -0.000614
vn 0.207870 0.977832 0.025199
vn 0.137184 0.990542 -0.002571
vn -0.034620 0.974796 0.220393
vn 0.167403 0.077520 0.982836
vn 0.933965 -0.023638 0.356581
vn 0.211164 0.977451 0.000326
vn 0.175807 0.984425 -0.000069
vn 0.091196 0.975777 0.198854
vn 0.004361 0.970374 0.241568
vn 0.207046 0.978041 -0.023832
vn 0.804502 0.593950 -0.000201
vn 0.273712 0.961812 -0.000064
vn -0.005877 0.885782 0.464065
vn 0.137407 0.990511 0.002855
vn -0.058602 0.456419 0.887833
vn 0.000000 1.000000 0.000000
vn 0.090248 0.975918 0.198596
vn 0.266847 0.058255 0.961977
vn 0.953888 0.207947 0.216464
vn 0.303634 0.937243 0.171410
vn 0.788841 0.598884 0.138087
vn 0.134461 0.698246 0.703117
vn 0.107441 0.283705 0.952873
vn 0.960227 0.242991 0.137548
vn 0.252371 0.126951 0.959267
vn 0.200935 0.345206 0.916765
vn 0.197386 0.738730 0.644451
vn 0.896615 0.382611 0.222915
vn -0.001363 0.061889 0.998082
vn -0.555827 -0.811116 0.182064
vn -0.068639 -0.106859 -0.991902
vn 0.078894 -0.996289 -0.034410
vn -0.673757 -0.083658 -0.734202
vn -0.228630 -0.011541 -0.973445
vn -0.063873 0.053058 -0.996547
vn 0.112951 -0.993229 -0.027184
vn -0.943359 -0.331774 -0.000013
vn -0.710313 -0.238381 0.662292
vn -0.566507 -0.824057 0.000127
vn -0.117656 -0.993054 -0.000022
vn 0.008624 -0.999963 0.000088
vn 0.058678 -0.997979 0.024382
vn -0.728242 -0.174570 -0.662714
vn 0.080678 -0.996648 0.013555
vn 0.060576 -0.995050 -0.078777
vn -0.244301 -0.300272 -0.922038
vn -0.108008 -0.993150 -0.044591
vn 0.025890 -0.999294 0.027227
vn 0.010971 -0.999898 0.009171
vn -0.010793 0.999915 -0.007263
vn -0.039736 -0.995989 -0.080171
vn -0.710028 -0.238480 -0.662561
vn -0.556289 -0.810860 -0.181792
vn -0.263101 -0.223755 -0.938462
vn 0.949227 0.314592 -0.000900
vn 0.983726 -0.179676 0.000014
vn 0.999443 0.033360 -0.000012
vn 0.975087 0.221822 -0.000868
vn 0.961903 0.273388 -0.001613
s 1
g polySurface30 MachineBase_3
usemtl initialShadingGroup
f 3/1/1 1/2/2 2/3/3 27/4/4
f 5/47/5 6/46/6 7/174/7 26/48/8
f 9/14/9 10/18/10 8/16/11 13/8/12
f 16/77/13 14/78/14 15/82/15 107/79/16
f 107/79/16 15/82/15 106/84/17
f 6/173/6 5/126/5 17/41/18 35/171/19
f 19/138/20 8/140/11 10/88/10 29/89/21
f 20/80/22 4/83/23 15/82/15 14/78/14
f 21/131/24 22/133/25 19/138/20 23/134/26
f 25/51/27 24/53/28 12/59/29 104/56/30
f 24/53/28 25/51/27 26/48/8 30/49/31
f 28/7/32 13/8/12 27/4/4 2/3/3
f 30/49/31 26/48/8 7/174/7 38/50/33
f 16/77/13 18/72/34 31/67/35 14/78/14
f 33/21/36 10/18/10 9/14/9 40/20/37
f 31/67/35 18/72/34 11/66/38 34/60/39
f 34/60/39 11/66/38 12/59/29 24/53/28
f 10/88/10 33/172/36 36/85/40 29/89/21
f 9/14/9 13/8/12 28/7/32 48/15/41
f 37/73/42 20/80/22 14/78/14 31/67/35
f 35/171/19 17/41/18 32/36/43 50/170/44
f 41/94/45 29/89/21 36/85/40 53/93/46
f 24/53/28 30/49/31 42/55/47 34/60/39
f 36/85/40 33/172/36 43/86/48 55/87/49
f 43/86/48 33/21/36 40/20/37 56/90/50
f 20/141/22 37/142/42 44/143/51 49/144/52
f 30/49/31 38/50/33 45/54/53 42/55/47
f 51/100/54 47/101/55 41/94/45 53/93/46
f 52/169/56 40/20/37 9/14/9 48/15/41
f 37/73/42 31/67/35 54/61/57
f 54/61/57 31/67/35 34/60/39 42/55/47
f 46/108/58 47/101/55 51/100/54 64/107/59
f 36/85/40 55/87/49 57/92/60 53/93/46
f 23/134/26 19/138/20 29/89/21 41/94/45
f 32/36/43 39/32/61 58/168/62 50/170/44
f 59/146/63 49/144/52 44/143/51 67/147/64
f 48/109/41 28/155/32 60/153/65 77/110/66
f 61/95/67 56/90/50 40/20/37 52/169/56
f 54/61/57 42/55/47 45/54/53 62/62/68
f 58/168/62 39/32/61 63/23/69
f 63/23/69 39/32/61 46/108/58 70/166/70
f 53/93/46 57/92/60 65/98/71 66/99/72
f 68/102/73 52/19/56 48/109/41 77/110/66
f 46/108/58 64/107/59 69/113/74 70/166/70
f 65/98/71 57/92/60 71/97/75 76/104/76
f 66/99/72 65/98/71 72/105/77 73/165/78
f 61/95/67 52/19/56 68/102/73 79/96/79
f 74/45/80 54/145/57 62/149/68 78/163/81
f 75/125/82 72/105/77 65/98/71 76/104/76
f 80/117/83 73/106/78 72/105/77 75/125/82
f 81/112/84 76/104/76 71/97/75 85/103/85
f 82/121/86 75/125/82 76/104/76 81/112/84
f 83/25/87 70/24/70 69/164/74 84/116/88
f 84/116/88 69/164/74 73/106/78 80/117/83
f 85/103/85 79/96/79 68/102/73 89/111/89
f 80/117/83 75/125/82 82/121/86 93/161/90
f 68/102/73 77/110/66 86/114/91 89/111/89
f 56/90/50 88/91/92 55/87/49 43/86/48
f 81/112/84 85/103/85 89/111/89 92/115/93
f 87/43/94 74/45/80 78/163/81 90/162/95
f 82/121/86 81/112/84 92/115/93 93/122/90
f 84/116/88 80/117/83 93/161/90 94/159/96
f 53/93/46 66/99/72 64/107/59 51/100/54
f 83/25/87 84/116/88 94/159/96 100/157/97
f 95/118/98 89/111/89 86/114/91 97/119/99
f 55/87/49 88/91/92 71/97/75 57/92/60
f 87/43/94 90/162/95 96/160/100 91/38/101
f 79/96/79 88/91/92 56/90/50 61/95/67
f 95/118/98 97/119/99 99/124/102 101/120/103
f 94/123/96 101/120/103 99/124/102 100/29/97
f 66/99/72 73/165/78 69/113/74 64/107/59
f 96/160/100 98/28/104 91/38/101
f 99/124/102 91/38/101 98/28/104 100/29/97
f 59/146/63 67/147/64 102/152/105 60/153/65
f 79/96/79 85/103/85 71/97/75 88/91/92
f 92/115/93 89/111/89 95/118/98 101/120/103
f 93/122/90 92/115/93 101/120/103 94/123/96
f 60/153/65 102/152/105 86/114/91 77/110/66
f 106/84/17 15/82/15 4/83/23 105/11/106
f 121/58/107 5/47/5 108/52/108
f 25/51/27 108/52/108 5/47/5 26/48/8
f 113/9/109 27/4/4 13/8/12 8/16/11
f 109/130/110 22/133/25 21/131/24 110/128/111
f 108/52/108 25/51/27 104/56/30 112/57/112
f 111/5/113 103/6/114 1/2/2 3/1/1
f 105/11/106 103/6/114 111/5/113 117/12/115
f 107/79/16 106/84/17 116/81/116 115/74/117
f 114/68/118 107/79/16 115/74/117
f 106/84/17 105/11/106 117/12/115 116/81/116
f 3/1/1 27/4/4 113/9/109 124/10/119
f 108/52/108 112/57/112 118/63/120 123/64/121
f 122/129/122 109/130/110 110/128/111 121/127/107
f 116/81/116 126/76/123 120/69/124 115/74/117
f 114/68/118 115/74/117 119/75/125 120/69/124
f 119/75/126 115/74/117 120/69/124
f 125/70/127 123/64/121 118/63/120 120/69/124
f 120/69/124 126/76/123 125/70/127
f 111/5/113 3/1/1 124/10/119 128/13/128
f 121/58/107 108/52/108 123/64/121 122/65/122
f 126/76/123 116/81/116 117/12/115 127/17/129
f 127/17/129 117/12/115 111/5/113 128/13/128
f 122/65/122 123/64/121 125/70/127 129/71/130
f 129/71/130 125/70/127 126/76/123 127/17/129
f 102/152/105 91/38/101 99/124/102 97/119/99
f 86/114/91 102/152/105 97/119/99
f 46/108/58 39/32/61 23/134/26 47/101/55
f 41/94/45 47/101/55 23/134/26
f 2/150/3 59/146/63 60/153/65 28/155/32
f 49/144/52 1/151/2 103/154/114 4/148/23
f 20/141/22 49/144/52 4/148/23
f 105/156/106 4/148/23 103/154/114
f 2/150/3 1/151/2 49/144/52 59/146/63
f 19/138/20 22/133/25 113/137/109 8/140/11
f 128/135/128 124/136/119 109/130/110 129/132/130
f 122/129/122 129/132/130 109/130/110
f 127/139/129 128/135/128 129/132/130
f 113/137/109 22/133/25 109/130/110 124/136/119
f 44/143/51 37/142/42 54/145/57 74/45/80
f 44/143/51 74/45/80 87/43/94 67/147/64
f 67/147/64 87/43/94 91/38/101 102/152/105
f 32/36/43 21/131/24 23/134/26 39/32/61
f 17/41/18 110/128/111 21/131/24 32/36/43
f 17/41/18 5/126/5 121/127/107 110/128/111
f 133/22/131 63/167/69 70/24/70 83/25/87
f 98/158/104 133/22/131 83/25/87 100/157/97
f 62/44/68 38/39/132 130/34/133 78/42/81
f 38/39/132 6/40/6 35/35/19 130/34/133
f 78/42/81 130/34/133 131/30/134 90/37/95
f 130/34/133 35/35/19 50/31/44 131/30/134
f 90/37/95 131/30/134 132/26/135 96/33/100
f 131/30/134 50/31/44 58/27/62 132/26/135
f 96/33/100 132/26/135 133/22/131 98/158/104
f 132/26/135 58/27/62 63/167/69 133/22/131
f 16/77/13 107/79/16 114/68/118 18/72/34
f 11/66/38 18/72/34 114/68/118 12/59/29
f 12/59/29 114/68/118 120/69/124 118/63/120
f 12/59/29 118/63/120 112/57/112 104/56/30
