# This file uses centimeters as units for non-parametric coordinates.

mtllib RegeneradoraTanque.mtl
g default
v 1.715459 -3.136722 -0.624377
v 1.398455 -3.136722 -1.173446
v 0.912775 -3.136722 -1.580979
v 0.317001 -3.136722 -1.797824
v -0.317009 -3.136722 -1.797824
v -0.912783 -3.136722 -1.580980
v -1.398463 -3.136722 -1.173446
v -1.715468 -3.136722 -0.624378
v -1.825562 -3.136722 -0.000000
v -1.715468 -3.136722 0.624377
v -1.398463 -3.136722 1.173446
v -0.912784 -3.136722 1.580980
v -0.317009 -3.136722 1.797824
v 0.317000 -3.136722 1.797824
v 0.912775 -3.136722 1.580980
v 1.398454 -3.136722 1.173446
v 1.715459 -3.136722 0.624378
v 1.825554 -3.136722 0.000000
v 1.715464 3.136722 -0.624377
v 1.398459 3.136722 -1.173446
v 0.912780 3.136722 -1.580979
v 0.317005 3.136722 -1.797824
v -0.317004 3.136722 -1.797824
v -0.912779 3.136722 -1.580980
v -1.398458 3.136722 -1.173446
v -1.715463 3.136722 -0.624378
v -1.825558 3.136722 -0.000000
v -1.715464 3.136722 0.624377
v -1.398459 3.136722 1.173446
v -0.912779 3.136722 1.580980
v -0.317005 3.136722 1.797824
v 0.317005 3.136722 1.797824
v 0.912779 3.136722 1.580980
v 1.398459 3.136722 1.173446
v 1.715464 3.136722 0.624378
v 1.825558 3.136722 0.000000
vt 0.375000 0.312500
vt 0.388889 0.312500
vt 0.402778 0.312500
vt 0.416667 0.312500
vt 0.430556 0.312500
vt 0.444444 0.312500
vt 0.458333 0.312500
vt 0.472222 0.312500
vt 0.486111 0.312500
vt 0.500000 0.312500
vt 0.513889 0.312500
vt 0.527778 0.312500
vt 0.541667 0.312500
vt 0.555556 0.312500
vt 0.569445 0.312500
vt 0.583333 0.312500
vt 0.597222 0.312500
vt 0.611111 0.312500
vt 0.625000 0.312500
vt 0.375000 0.688440
vt 0.388889 0.688440
vt 0.402778 0.688440
vt 0.416667 0.688440
vt 0.430556 0.688440
vt 0.444444 0.688440
vt 0.458333 0.688440
vt 0.472222 0.688440
vt 0.486111 0.688440
vt 0.500000 0.688440
vt 0.513889 0.688440
vt 0.527778 0.688440
vt 0.541667 0.688440
vt 0.555556 0.688440
vt 0.569445 0.688440
vt 0.583333 0.688440
vt 0.597222 0.688440
vt 0.611111 0.688440
vt 0.625000 0.688440
vn 0.939693 -0.000001 -0.342020
vn 0.766045 -0.000001 -0.642788
vn 0.766045 -0.000001 -0.642787
vn 0.939693 -0.000001 -0.342020
vn 0.500000 -0.000000 -0.866025
vn 0.500000 -0.000000 -0.866025
vn 0.173649 -0.000000 -0.984808
vn 0.173649 -0.000000 -0.984808
vn -0.173648 0.000000 -0.984808
vn -0.173648 0.000000 -0.984808
vn -0.500000 0.000000 -0.866026
vn -0.500000 0.000000 -0.866026
vn -0.766044 0.000001 -0.642788
vn -0.766044 0.000001 -0.642788
vn -0.939693 0.000001 -0.342020
vn -0.939693 0.000001 -0.342020
vn -1.000000 0.000001 -0.000000
vn -1.000000 0.000001 -0.000000
vn -0.939693 0.000001 0.342020
vn -0.939693 0.000001 0.342020
vn -0.766045 0.000001 0.642787
vn -0.766045 0.000001 0.642787
vn -0.500000 0.000000 0.866025
vn -0.500000 0.000000 0.866025
vn -0.173648 0.000000 0.984808
vn -0.173648 0.000000 0.984808
vn 0.173648 -0.000000 0.984808
vn 0.173648 -0.000000 0.984808
vn 0.500000 -0.000000 0.866025
vn 0.500000 -0.000000 0.866025
vn 0.766044 -0.000001 0.642788
vn 0.766044 -0.000001 0.642788
vn 0.939693 -0.000001 0.342020
vn 0.939693 -0.000001 0.342020
vn 1.000000 -0.000001 0.000000
vn 1.000000 -0.000001 0.000000
vn 0.000000 1.000000 -0.000001
vn 0.000000 1.000000 -0.000001
vn 0.000000 1.000000 0.000000
vn 0.000000 1.000000 -0.000000
vn 0.000000 1.000000 -0.000001
vn 0.000000 1.000000 0.000000
vn 0.000000 1.000000 -0.000001
vn 0.000000 1.000000 -0.000000
vn 0.000000 1.000000 0.000000
vn 0.000000 1.000000 0.000000
vn 0.000000 1.000000 0.000000
vn 0.000000 1.000000 0.000000
vn 0.000000 1.000000 -0.000000
vn 0.000000 1.000000 0.000000
vn 0.000000 1.000000 -0.000000
vn 0.000000 1.000000 0.000001
vn 0.000000 1.000000 -0.000000
vn 0.000000 1.000000 -0.000000
vn 0.000000 -1.000000 0.000002
vn 0.000000 -1.000000 -0.000001
vn 0.000000 -1.000000 -0.000000
vn 0.000000 -1.000000 -0.000000
vn 0.000000 -1.000000 0.000000
vn 0.000000 -1.000000 0.000000
vn 0.000000 -1.000000 -0.000000
vn 0.000000 -1.000000 0.000000
vn 0.000000 -1.000000 0.000000
vn 0.000000 -1.000000 -0.000000
vn 0.000000 -1.000000 -0.000000
vn 0.000000 -1.000000 -0.000000
vn 0.000000 -1.000000 -0.000000
vn 0.000000 -1.000000 0.000002
vn 0.000000 -1.000000 -0.000001
vn 0.000000 -1.000000 0.000000
vn 0.000000 -1.000000 0.000002
vn 0.000000 -1.000000 -0.000007
s 1
g RegeneradoraTanque_2
usemtl initialShadingGroup
f 1/1/1 2/2/2 20/21/3 19/20/4
f 2/2/2 3/3/5 21/22/6 20/21/3
f 3/3/5 4/4/7 22/23/8 21/22/6
f 4/4/7 5/5/9 23/24/10 22/23/8
f 5/5/9 6/6/11 24/25/12 23/24/10
f 6/6/11 7/7/13 25/26/14 24/25/12
f 7/7/13 8/8/15 26/27/16 25/26/14
f 8/8/15 9/9/17 27/28/18 26/27/16
f 9/9/17 10/10/19 28/29/20 27/28/18
f 10/10/19 11/11/21 29/30/22 28/29/20
f 11/11/21 12/12/23 30/31/24 29/30/22
f 12/12/23 13/13/25 31/32/26 30/31/24
f 13/13/25 14/14/27 32/33/28 31/32/26
f 14/14/27 15/15/29 33/34/30 32/33/28
f 15/15/29 16/16/31 34/35/32 33/34/30
f 16/16/31 17/17/33 35/36/34 34/35/32
f 17/17/33 18/18/35 36/37/36 35/36/34
f 18/18/35 1/19/1 19/38/4 36/37/36
s 2
f 20/21/37 21/22/38 19/20/39
f 21/22/38 22/23/40 19/20/39
f 22/23/40 23/24/41 19/20/39
f 23/24/41 24/25/42 19/20/39
f 24/25/42 25/26/43 19/20/39
f 25/26/43 26/27/44 19/20/39
f 26/27/44 27/28/45 19/20/39
f 27/28/45 28/29/46 19/20/39
f 28/29/46 29/30/47 19/20/39
f 29/30/47 30/31/48 19/20/39
f 30/31/48 31/32/49 19/20/39
f 31/32/49 32/33/50 19/20/39
f 32/33/50 33/34/51 19/20/39
f 33/34/51 34/35/52 19/20/39
f 34/35/52 35/36/53 19/20/39
f 35/36/53 36/37/54 19/20/39
s 3
f 2/2/55 1/19/56 3/3/57
f 1/19/56 18/18/58 3/3/57
f 18/18/58 17/17/59 3/3/57
f 17/17/59 16/16/60 3/3/57
f 16/16/60 15/15/61 3/3/57
f 15/15/61 14/14/62 3/3/57
f 14/14/62 13/13/63 3/3/57
f 13/13/63 12/12/64 3/3/57
f 12/12/64 11/11/65 3/3/57
f 11/11/65 10/10/66 3/3/57
f 10/10/66 9/9/67 3/3/57
f 9/9/67 8/8/68 3/3/57
f 8/8/68 7/7/69 3/3/57
f 7/7/69 6/6/70 3/3/57
f 6/6/70 5/5/71 3/3/57
f 5/5/71 4/4/72 3/3/57
