# This file uses centimeters as units for non-parametric coordinates.

mtllib extra.mtl
g default
v 0.011945 0.005320 -0.005997
v 0.008749 0.009719 -0.005997
v 0.004039 0.012439 -0.005997
v -0.001370 0.013007 -0.005997
v -0.006542 0.011327 -0.005997
v -0.010584 0.007687 -0.005997
v -0.012796 0.002719 -0.005997
v -0.012796 -0.002719 -0.005997
v -0.010584 -0.007687 -0.005997
v -0.006542 -0.011327 -0.005997
v -0.001370 -0.013007 -0.005997
v 0.004039 -0.012439 -0.005997
v 0.008749 -0.009719 -0.005997
v 0.011945 -0.005320 -0.005997
v 0.013076 0.000000 -0.005997
v 0.012901 0.005746 -0.002272
v 0.009448 0.010498 -0.002272
v 0.004361 0.013435 -0.002272
v -0.001482 0.014049 -0.002272
v -0.007068 0.012234 -0.002272
v -0.011434 0.008304 -0.002272
v -0.013823 0.002937 -0.002272
v -0.013823 -0.002937 -0.002272
v -0.011434 -0.008304 -0.002272
v -0.007068 -0.012234 -0.002272
v -0.001482 -0.014049 -0.002272
v 0.004361 -0.013435 -0.002272
v 0.009448 -0.010498 -0.002272
v 0.012901 -0.005746 -0.002272
v 0.014122 0.000000 -0.002272
v 0.013458 0.005995 0.001750
v 0.009856 0.010954 0.001750
v 0.004548 0.014019 0.001750
v -0.001548 0.014660 0.001750
v -0.007378 0.012766 0.001750
v -0.011933 0.008664 0.001750
v -0.014426 0.003065 0.001750
v -0.014426 -0.003065 0.001750
v -0.011933 -0.008664 0.001750
v -0.007378 -0.012766 0.001750
v -0.001548 -0.014660 0.001750
v 0.004548 -0.014019 0.001750
v 0.009856 -0.010954 0.001750
v 0.013458 -0.005995 0.001750
v 0.014733 0.000000 0.001750
v 0.013476 0.006005 0.006018
v 0.009868 0.010971 0.006018
v 0.004552 0.014040 0.006018
v -0.001553 0.014682 0.006018
v -0.007392 0.012785 0.006018
v -0.011953 0.008677 0.006018
v -0.014450 0.003069 0.006018
v -0.014450 -0.003069 0.006018
v -0.011953 -0.008677 0.006018
v -0.007392 -0.012785 0.006018
v -0.001553 -0.014682 0.006018
v 0.004552 -0.014040 0.006018
v 0.009868 -0.010971 0.006018
v 0.013476 -0.006005 0.006018
v 0.014752 0.000000 0.006018
vt 0.000000 0.400000
vt 0.066667 0.400000
vt 0.133333 0.400000
vt 0.200000 0.400000
vt 0.266667 0.400000
vt 0.333333 0.400000
vt 0.400000 0.400000
vt 0.466667 0.400000
vt 0.533333 0.400000
vt 0.600000 0.400000
vt 0.666667 0.400000
vt 0.733333 0.400000
vt 0.800000 0.400000
vt 0.866667 0.400000
vt 0.933333 0.400000
vt 1.000000 0.400000
vt 0.000000 0.466667
vt 0.066667 0.466667
vt 0.133333 0.466667
vt 0.200000 0.466667
vt 0.266667 0.466667
vt 0.333333 0.466667
vt 0.400000 0.466667
vt 0.466667 0.466667
vt 0.533333 0.466667
vt 0.600000 0.466667
vt 0.666667 0.466667
vt 0.733333 0.466667
vt 0.800000 0.466667
vt 0.866667 0.466667
vt 0.933333 0.466667
vt 1.000000 0.466667
vt 0.000000 0.533333
vt 0.066667 0.533333
vt 0.133333 0.533333
vt 0.200000 0.533333
vt 0.266667 0.533333
vt 0.333333 0.533333
vt 0.400000 0.533333
vt 0.466667 0.533333
vt 0.533333 0.533333
vt 0.600000 0.533333
vt 0.666667 0.533333
vt 0.733333 0.533333
vt 0.800000 0.533333
vt 0.866667 0.533333
vt 0.933333 0.533333
vt 1.000000 0.533333
vt 0.000000 0.600000
vt 0.066667 0.600000
vt 0.133333 0.600000
vt 0.200000 0.600000
vt 0.266667 0.600000
vt 0.333333 0.600000
vt 0.400000 0.600000
vt 0.466667 0.600000
vt 0.533333 0.600000
vt 0.600000 0.600000
vt 0.666667 0.600000
vt 0.733333 0.600000
vt 0.800000 0.600000
vt 0.866667 0.600000
vt 0.933333 0.600000
vt 1.000000 0.600000
vn 0.879545 0.391558 -0.270338
vn 0.644243 0.715402 -0.270464
vn 0.654894 0.727315 -0.205246
vn 0.894126 0.398083 -0.205106
vn 0.297567 0.915534 -0.270650
vn 0.302439 0.930763 -0.205453
vn -0.100530 0.957354 -0.270864
vn -0.102277 0.973258 -0.205691
vn -0.481211 0.833641 -0.271069
vn -0.489272 0.847473 -0.205918
vn -0.778659 0.565796 -0.271228
vn -0.791643 0.575175 -0.206095
vn -0.941454 0.200132 -0.271316
vn -0.957128 0.203447 -0.206192
vn -0.941454 -0.200132 -0.271316
vn -0.957128 -0.203447 -0.206193
vn -0.778659 -0.565796 -0.271229
vn -0.791643 -0.575174 -0.206095
vn -0.481211 -0.833641 -0.271069
vn -0.489273 -0.847473 -0.205918
vn -0.100530 -0.957354 -0.270864
vn -0.102278 -0.973258 -0.205691
vn 0.297567 -0.915534 -0.270650
vn 0.302439 -0.930763 -0.205453
vn 0.644243 -0.715402 -0.270464
vn 0.654894 -0.727316 -0.205246
vn 0.879545 -0.391558 -0.270338
vn 0.894126 -0.398083 -0.205106
vn 0.962778 0.000000 -0.270293
vn 0.978750 0.000000 -0.205056
vn 0.667288 0.741093 -0.074214
vn 0.911037 0.405618 -0.074060
vn 0.308164 0.948416 -0.074440
vn -0.104232 0.991744 -0.074700
vn -0.498590 0.863592 -0.074948
vn -0.806728 0.586126 -0.075143
vn -0.975374 0.207323 -0.075249
vn -0.975374 -0.207323 -0.075249
vn -0.806728 -0.586126 -0.075143
vn -0.498590 -0.863592 -0.074948
vn -0.104232 -0.991744 -0.074700
vn 0.308164 -0.948417 -0.074440
vn 0.667288 -0.741093 -0.074214
vn 0.911037 -0.405618 -0.074060
vn 0.997258 0.000000 -0.074006
vn 0.669058 0.743195 -0.004806
vn 0.913516 0.406776 -0.004651
vn 0.308907 0.951079 -0.005035
vn -0.104643 0.994496 -0.005297
vn -0.500080 0.865961 -0.005548
vn -0.809044 0.587720 -0.005744
vn -0.978136 0.207884 -0.005851
vn -0.978136 -0.207884 -0.005851
vn -0.809044 -0.587720 -0.005744
vn -0.500081 -0.865961 -0.005548
vn -0.104643 -0.994496 -0.005297
vn 0.308907 -0.951079 -0.005034
vn 0.669058 -0.743195 -0.004806
vn 0.913516 -0.406776 -0.004651
vn 0.999989 0.000000 -0.004596
s 1
g pSphere1
usemtl initialShadingGroup
f 1/1/1 2/2/2 17/18/3 16/17/4
f 2/2/2 3/3/5 18/19/6 17/18/3
f 3/3/5 4/4/7 19/20/8 18/19/6
f 4/4/7 5/5/9 20/21/10 19/20/8
f 5/5/9 6/6/11 21/22/12 20/21/10
f 6/6/11 7/7/13 22/23/14 21/22/12
f 7/7/13 8/8/15 23/24/16 22/23/14
f 8/8/15 9/9/17 24/25/18 23/24/16
f 9/9/17 10/10/19 25/26/20 24/25/18
f 10/10/19 11/11/21 26/27/22 25/26/20
f 11/11/21 12/12/23 27/28/24 26/27/22
f 12/12/23 13/13/25 28/29/26 27/28/24
f 13/13/25 14/14/27 29/30/28 28/29/26
f 14/14/27 15/15/29 30/31/30 29/30/28
f 15/15/29 1/16/1 16/32/4 30/31/30
f 16/17/4 17/18/3 32/34/31 31/33/32
f 17/18/3 18/19/6 33/35/33 32/34/31
f 18/19/6 19/20/8 34/36/34 33/35/33
f 19/20/8 20/21/10 35/37/35 34/36/34
f 20/21/10 21/22/12 36/38/36 35/37/35
f 21/22/12 22/23/14 37/39/37 36/38/36
f 22/23/14 23/24/16 38/40/38 37/39/37
f 23/24/16 24/25/18 39/41/39 38/40/38
f 24/25/18 25/26/20 40/42/40 39/41/39
f 25/26/20 26/27/22 41/43/41 40/42/40
f 26/27/22 27/28/24 42/44/42 41/43/41
f 27/28/24 28/29/26 43/45/43 42/44/42
f 28/29/26 29/30/28 44/46/44 43/45/43
f 29/30/28 30/31/30 45/47/45 44/46/44
f 30/31/30 16/32/4 31/48/32 45/47/45
f 31/33/32 32/34/31 47/50/46 46/49/47
f 32/34/31 33/35/33 48/51/48 47/50/46
f 33/35/33 34/36/34 49/52/49 48/51/48
f 34/36/34 35/37/35 50/53/50 49/52/49
f 35/37/35 36/38/36 51/54/51 50/53/50
f 36/38/36 37/39/37 52/55/52 51/54/51
f 37/39/37 38/40/38 53/56/53 52/55/52
f 38/40/38 39/41/39 54/57/54 53/56/53
f 39/41/39 40/42/40 55/58/55 54/57/54
f 40/42/40 41/43/41 56/59/56 55/58/55
f 41/43/41 42/44/42 57/60/57 56/59/56
f 42/44/42 43/45/43 58/61/58 57/60/57
f 43/45/43 44/46/44 59/62/59 58/61/58
f 44/46/44 45/47/45 60/63/60 59/62/59
f 45/47/45 31/48/32 46/64/47 60/63/60
