# This file uses centimeters as units for non-parametric coordinates.

mtllib tutorial_piso.mtl
g default
v 27.138424 1.313007 40.763855
v -48.487400 1.248973 19.975626
v 15.148029 1.293569 19.991802
v 37.490376 1.250229 34.608429
v -48.473637 1.296239 7.964056
v -24.823795 1.316541 7.954034
v 5.590790 1.316751 -20.731012
v 17.508579 1.280955 -41.478783
v 7.174496 1.319761 -47.465614
vt 0.298748 0.395347
vt 0.648599 0.695455
vt 0.790626 0.917758
vt 0.679926 0.989057
vt 0.971164 0.069439
vt 0.732701 0.242015
vt 0.853960 0.007026
vt 0.038290 0.407519
vt 0.031899 0.275243
vn -0.000249 0.999996 0.002708
vn 0.000937 1.000000 0.000207
vn 0.001044 1.000000 0.000174
vn 0.001044 0.999999 0.000174
vn 0.002465 0.999997 -0.000803
vn 0.001609 0.999999 -0.000083
vn 0.002465 0.999997 -0.000803
vn -0.000744 0.999991 0.004156
vn -0.000744 0.999991 0.004156
s 1
g Piso
usemtl initialShadingGroup
f 6/1/1 7/2/2 8/3/3 9/4/4
f 4/5/5 7/2/2 3/6/6 1/7/7
f 3/6/6 6/1/1 5/8/8 2/9/9
f 3/6/6 7/2/2 6/1/1
